<mxfile host="app.diagrams.net" modified="2024-05-23T09:56:18.029Z" agent="Mozilla/5.0 (Windows NT 10.0; Win64; x64) AppleWebKit/537.36 (KHTML, like Gecko) Chrome/125.0.0.0 Safari/537.36 Edg/125.0.0.0" version="24.4.6" etag="xZlgd9d8rbF-dKZsWX0z" type="device">
  <diagram name="Page-1" id="jAN8nwLO2t6QRhvFD51_">
    <mxGraphModel dx="8453" dy="5260" grid="0" gridSize="10" guides="1" tooltips="1" connect="1" arrows="1" fold="1" page="0" pageScale="1" pageWidth="850" pageHeight="1100" background="#ffffff" math="0" shadow="0">
      <root>
        <mxCell id="0" />
        <mxCell id="1" parent="0" />
        <mxCell id="_mon4JP7_cOclulxk8N5-370" value="&lt;font style=&quot;font-size: 26px;&quot;&gt;Controller&lt;/font&gt;" style="shape=folder;fontStyle=1;spacingTop=10;tabWidth=40;tabHeight=14;tabPosition=left;html=1;whiteSpace=wrap;fillColor=#f8cecc;strokeColor=#b85450;verticalAlign=top;" parent="1" vertex="1">
          <mxGeometry x="-86.5" y="10" width="1455" height="1295" as="geometry" />
        </mxCell>
        <mxCell id="_mon4JP7_cOclulxk8N5-1" value="&lt;font style=&quot;font-size: 26px;&quot;&gt;View&lt;/font&gt;" style="shape=folder;fontStyle=1;spacingTop=10;tabWidth=40;tabHeight=14;tabPosition=left;html=1;whiteSpace=wrap;verticalAlign=top;fillColor=#ffe6cc;strokeColor=#d79b00;" parent="1" vertex="1">
          <mxGeometry x="-90" y="1420" width="1455" height="1030" as="geometry" />
        </mxCell>
        <mxCell id="_mon4JP7_cOclulxk8N5-536" style="edgeStyle=orthogonalEdgeStyle;rounded=0;orthogonalLoop=1;jettySize=auto;html=1;jumpStyle=arc;" parent="1" source="_mon4JP7_cOclulxk8N5-2" target="_mon4JP7_cOclulxk8N5-391" edge="1">
          <mxGeometry relative="1" as="geometry">
            <Array as="points">
              <mxPoint x="94" y="1340" />
              <mxPoint x="497" y="1340" />
            </Array>
          </mxGeometry>
        </mxCell>
        <mxCell id="_mon4JP7_cOclulxk8N5-2" value="AdminGUI" style="swimlane;fontStyle=1;childLayout=stackLayout;horizontal=1;startSize=26;horizontalStack=0;resizeParent=1;resizeParentMax=0;resizeLast=0;collapsible=1;marginBottom=0;" parent="1" vertex="1">
          <mxGeometry x="-70" y="1460" width="328" height="970" as="geometry" />
        </mxCell>
        <mxCell id="_mon4JP7_cOclulxk8N5-3" value="-UserTable: DataGrid" style="text;strokeColor=none;fillColor=none;align=left;verticalAlign=top;spacingLeft=4;spacingRight=4;overflow=hidden;rotatable=0;points=[[0,0.5],[1,0.5]];portConstraint=eastwest;" parent="_mon4JP7_cOclulxk8N5-2" vertex="1">
          <mxGeometry y="26" width="328" height="26" as="geometry" />
        </mxCell>
        <mxCell id="_mon4JP7_cOclulxk8N5-4" value="-CreateUserButton: Button" style="text;strokeColor=none;fillColor=none;align=left;verticalAlign=top;spacingLeft=4;spacingRight=4;overflow=hidden;rotatable=0;points=[[0,0.5],[1,0.5]];portConstraint=eastwest;" parent="_mon4JP7_cOclulxk8N5-2" vertex="1">
          <mxGeometry y="52" width="328" height="26" as="geometry" />
        </mxCell>
        <mxCell id="_mon4JP7_cOclulxk8N5-5" value="-UpdateUserButton: Button" style="text;strokeColor=none;fillColor=none;align=left;verticalAlign=top;spacingLeft=4;spacingRight=4;overflow=hidden;rotatable=0;points=[[0,0.5],[1,0.5]];portConstraint=eastwest;" parent="_mon4JP7_cOclulxk8N5-2" vertex="1">
          <mxGeometry y="78" width="328" height="26" as="geometry" />
        </mxCell>
        <mxCell id="_mon4JP7_cOclulxk8N5-6" value="-DeleteUserButton: Button" style="text;strokeColor=none;fillColor=none;align=left;verticalAlign=top;spacingLeft=4;spacingRight=4;overflow=hidden;rotatable=0;points=[[0,0.5],[1,0.5]];portConstraint=eastwest;" parent="_mon4JP7_cOclulxk8N5-2" vertex="1">
          <mxGeometry y="104" width="328" height="26" as="geometry" />
        </mxCell>
        <mxCell id="_mon4JP7_cOclulxk8N5-7" value="-SearchButton: Button" style="text;strokeColor=none;fillColor=none;align=left;verticalAlign=top;spacingLeft=4;spacingRight=4;overflow=hidden;rotatable=0;points=[[0,0.5],[1,0.5]];portConstraint=eastwest;" parent="_mon4JP7_cOclulxk8N5-2" vertex="1">
          <mxGeometry y="130" width="328" height="26" as="geometry" />
        </mxCell>
        <mxCell id="_mon4JP7_cOclulxk8N5-8" value="-LogOutButton: Button" style="text;strokeColor=none;fillColor=none;align=left;verticalAlign=top;spacingLeft=4;spacingRight=4;overflow=hidden;rotatable=0;points=[[0,0.5],[1,0.5]];portConstraint=eastwest;" parent="_mon4JP7_cOclulxk8N5-2" vertex="1">
          <mxGeometry y="156" width="328" height="26" as="geometry" />
        </mxCell>
        <mxCell id="_mon4JP7_cOclulxk8N5-9" value="-RefreshButton: Button" style="text;strokeColor=none;fillColor=none;align=left;verticalAlign=top;spacingLeft=4;spacingRight=4;overflow=hidden;rotatable=0;points=[[0,0.5],[1,0.5]];portConstraint=eastwest;" parent="_mon4JP7_cOclulxk8N5-2" vertex="1">
          <mxGeometry y="182" width="328" height="26" as="geometry" />
        </mxCell>
        <mxCell id="_mon4JP7_cOclulxk8N5-10" value="-ExportPDFButton: Button" style="text;strokeColor=none;fillColor=none;align=left;verticalAlign=top;spacingLeft=4;spacingRight=4;overflow=hidden;rotatable=0;points=[[0,0.5],[1,0.5]];portConstraint=eastwest;" parent="_mon4JP7_cOclulxk8N5-2" vertex="1">
          <mxGeometry y="208" width="328" height="26" as="geometry" />
        </mxCell>
        <mxCell id="_mon4JP7_cOclulxk8N5-11" value="-DownloadButton: Button" style="text;strokeColor=none;fillColor=none;align=left;verticalAlign=top;spacingLeft=4;spacingRight=4;overflow=hidden;rotatable=0;points=[[0,0.5],[1,0.5]];portConstraint=eastwest;" parent="_mon4JP7_cOclulxk8N5-2" vertex="1">
          <mxGeometry y="234" width="328" height="26" as="geometry" />
        </mxCell>
        <mxCell id="_mon4JP7_cOclulxk8N5-12" value="-ShowRingChartButton: Button" style="text;strokeColor=none;fillColor=none;align=left;verticalAlign=top;spacingLeft=4;spacingRight=4;overflow=hidden;rotatable=0;points=[[0,0.5],[1,0.5]];portConstraint=eastwest;" parent="_mon4JP7_cOclulxk8N5-2" vertex="1">
          <mxGeometry y="260" width="328" height="26" as="geometry" />
        </mxCell>
        <mxCell id="_mon4JP7_cOclulxk8N5-13" value="-ShowLineChartDialogButton: Button" style="text;strokeColor=none;fillColor=none;align=left;verticalAlign=top;spacingLeft=4;spacingRight=4;overflow=hidden;rotatable=0;points=[[0,0.5],[1,0.5]];portConstraint=eastwest;" parent="_mon4JP7_cOclulxk8N5-2" vertex="1">
          <mxGeometry y="286" width="328" height="26" as="geometry" />
        </mxCell>
        <mxCell id="_mon4JP7_cOclulxk8N5-14" value="-ShowPresentationsByAuthorChartButton: Button" style="text;strokeColor=none;fillColor=none;align=left;verticalAlign=top;spacingLeft=4;spacingRight=4;overflow=hidden;rotatable=0;points=[[0,0.5],[1,0.5]];portConstraint=eastwest;" parent="_mon4JP7_cOclulxk8N5-2" vertex="1">
          <mxGeometry y="312" width="328" height="26" as="geometry" />
        </mxCell>
        <mxCell id="_mon4JP7_cOclulxk8N5-15" value="-ShowPresentationsPerDayChartButton: Button" style="text;strokeColor=none;fillColor=none;align=left;verticalAlign=top;spacingLeft=4;spacingRight=4;overflow=hidden;rotatable=0;points=[[0,0.5],[1,0.5]];portConstraint=eastwest;" parent="_mon4JP7_cOclulxk8N5-2" vertex="1">
          <mxGeometry y="338" width="328" height="26" as="geometry" />
        </mxCell>
        <mxCell id="_mon4JP7_cOclulxk8N5-16" value="-ShowParticipantsBySectionChartButton: Button" style="text;strokeColor=none;fillColor=none;align=left;verticalAlign=top;spacingLeft=4;spacingRight=4;overflow=hidden;rotatable=0;points=[[0,0.5],[1,0.5]];portConstraint=eastwest;" parent="_mon4JP7_cOclulxk8N5-2" vertex="1">
          <mxGeometry y="364" width="328" height="26" as="geometry" />
        </mxCell>
        <mxCell id="_mon4JP7_cOclulxk8N5-17" value="-ShowParticipantsByConferenceChartButton: Button" style="text;strokeColor=none;fillColor=none;align=left;verticalAlign=top;spacingLeft=4;spacingRight=4;overflow=hidden;rotatable=0;points=[[0,0.5],[1,0.5]];portConstraint=eastwest;" parent="_mon4JP7_cOclulxk8N5-2" vertex="1">
          <mxGeometry y="390" width="328" height="26" as="geometry" />
        </mxCell>
        <mxCell id="_mon4JP7_cOclulxk8N5-18" value="" style="line;strokeWidth=1;fillColor=none;align=left;verticalAlign=middle;spacingTop=-1;spacingLeft=3;spacingRight=3;rotatable=0;labelPosition=right;points=[];portConstraint=eastwest;" parent="_mon4JP7_cOclulxk8N5-2" vertex="1">
          <mxGeometry y="416" width="328" height="8" as="geometry" />
        </mxCell>
        <mxCell id="_mon4JP7_cOclulxk8N5-19" value="+GetIdTextBox(): TextBox" style="text;strokeColor=none;fillColor=none;align=left;verticalAlign=top;spacingLeft=4;spacingRight=4;overflow=hidden;rotatable=0;points=[[0,0.5],[1,0.5]];portConstraint=eastwest;" parent="_mon4JP7_cOclulxk8N5-2" vertex="1">
          <mxGeometry y="424" width="328" height="26" as="geometry" />
        </mxCell>
        <mxCell id="_mon4JP7_cOclulxk8N5-20" value="+GetNameTextBox(): TextBox" style="text;strokeColor=none;fillColor=none;align=left;verticalAlign=top;spacingLeft=4;spacingRight=4;overflow=hidden;rotatable=0;points=[[0,0.5],[1,0.5]];portConstraint=eastwest;" parent="_mon4JP7_cOclulxk8N5-2" vertex="1">
          <mxGeometry y="450" width="328" height="26" as="geometry" />
        </mxCell>
        <mxCell id="_mon4JP7_cOclulxk8N5-21" value="+GetEmailTextBox(): TextBox" style="text;strokeColor=none;fillColor=none;align=left;verticalAlign=top;spacingLeft=4;spacingRight=4;overflow=hidden;rotatable=0;points=[[0,0.5],[1,0.5]];portConstraint=eastwest;" parent="_mon4JP7_cOclulxk8N5-2" vertex="1">
          <mxGeometry y="476" width="328" height="26" as="geometry" />
        </mxCell>
        <mxCell id="_mon4JP7_cOclulxk8N5-22" value="+GetPasswordTextBox(): TextBox" style="text;strokeColor=none;fillColor=none;align=left;verticalAlign=top;spacingLeft=4;spacingRight=4;overflow=hidden;rotatable=0;points=[[0,0.5],[1,0.5]];portConstraint=eastwest;" parent="_mon4JP7_cOclulxk8N5-2" vertex="1">
          <mxGeometry y="502" width="328" height="26" as="geometry" />
        </mxCell>
        <mxCell id="_mon4JP7_cOclulxk8N5-23" value="+GetUserTypeComboBox(): ComboBox" style="text;strokeColor=none;fillColor=none;align=left;verticalAlign=top;spacingLeft=4;spacingRight=4;overflow=hidden;rotatable=0;points=[[0,0.5],[1,0.5]];portConstraint=eastwest;" parent="_mon4JP7_cOclulxk8N5-2" vertex="1">
          <mxGeometry y="528" width="328" height="26" as="geometry" />
        </mxCell>
        <mxCell id="_mon4JP7_cOclulxk8N5-24" value="+GetTelephoneTextBox(): TextBox" style="text;strokeColor=none;fillColor=none;align=left;verticalAlign=top;spacingLeft=4;spacingRight=4;overflow=hidden;rotatable=0;points=[[0,0.5],[1,0.5]];portConstraint=eastwest;" parent="_mon4JP7_cOclulxk8N5-2" vertex="1">
          <mxGeometry y="554" width="328" height="26" as="geometry" />
        </mxCell>
        <mxCell id="_mon4JP7_cOclulxk8N5-25" value="+GetUsersDataGrid(): DataGrid" style="text;strokeColor=none;fillColor=none;align=left;verticalAlign=top;spacingLeft=4;spacingRight=4;overflow=hidden;rotatable=0;points=[[0,0.5],[1,0.5]];portConstraint=eastwest;" parent="_mon4JP7_cOclulxk8N5-2" vertex="1">
          <mxGeometry y="580" width="328" height="26" as="geometry" />
        </mxCell>
        <mxCell id="_mon4JP7_cOclulxk8N5-26" value="+GetCreateUserButton(): Button" style="text;strokeColor=none;fillColor=none;align=left;verticalAlign=top;spacingLeft=4;spacingRight=4;overflow=hidden;rotatable=0;points=[[0,0.5],[1,0.5]];portConstraint=eastwest;" parent="_mon4JP7_cOclulxk8N5-2" vertex="1">
          <mxGeometry y="606" width="328" height="26" as="geometry" />
        </mxCell>
        <mxCell id="_mon4JP7_cOclulxk8N5-27" value="+GetUpdateUserButton(): Button" style="text;strokeColor=none;fillColor=none;align=left;verticalAlign=top;spacingLeft=4;spacingRight=4;overflow=hidden;rotatable=0;points=[[0,0.5],[1,0.5]];portConstraint=eastwest;" parent="_mon4JP7_cOclulxk8N5-2" vertex="1">
          <mxGeometry y="632" width="328" height="26" as="geometry" />
        </mxCell>
        <mxCell id="_mon4JP7_cOclulxk8N5-28" value="+GetDeleteUserButton(): Button" style="text;strokeColor=none;fillColor=none;align=left;verticalAlign=top;spacingLeft=4;spacingRight=4;overflow=hidden;rotatable=0;points=[[0,0.5],[1,0.5]];portConstraint=eastwest;" parent="_mon4JP7_cOclulxk8N5-2" vertex="1">
          <mxGeometry y="658" width="328" height="26" as="geometry" />
        </mxCell>
        <mxCell id="_mon4JP7_cOclulxk8N5-29" value="+GetSearchButton(): Button" style="text;strokeColor=none;fillColor=none;align=left;verticalAlign=top;spacingLeft=4;spacingRight=4;overflow=hidden;rotatable=0;points=[[0,0.5],[1,0.5]];portConstraint=eastwest;" parent="_mon4JP7_cOclulxk8N5-2" vertex="1">
          <mxGeometry y="684" width="328" height="26" as="geometry" />
        </mxCell>
        <mxCell id="_mon4JP7_cOclulxk8N5-30" value="+GetLogOutButton(): Button" style="text;strokeColor=none;fillColor=none;align=left;verticalAlign=top;spacingLeft=4;spacingRight=4;overflow=hidden;rotatable=0;points=[[0,0.5],[1,0.5]];portConstraint=eastwest;" parent="_mon4JP7_cOclulxk8N5-2" vertex="1">
          <mxGeometry y="710" width="328" height="26" as="geometry" />
        </mxCell>
        <mxCell id="_mon4JP7_cOclulxk8N5-31" value="+GetRefreshButton(): Button" style="text;strokeColor=none;fillColor=none;align=left;verticalAlign=top;spacingLeft=4;spacingRight=4;overflow=hidden;rotatable=0;points=[[0,0.5],[1,0.5]];portConstraint=eastwest;" parent="_mon4JP7_cOclulxk8N5-2" vertex="1">
          <mxGeometry y="736" width="328" height="26" as="geometry" />
        </mxCell>
        <mxCell id="_mon4JP7_cOclulxk8N5-32" value="+GetExportPDFButton(): Button" style="text;strokeColor=none;fillColor=none;align=left;verticalAlign=top;spacingLeft=4;spacingRight=4;overflow=hidden;rotatable=0;points=[[0,0.5],[1,0.5]];portConstraint=eastwest;" parent="_mon4JP7_cOclulxk8N5-2" vertex="1">
          <mxGeometry y="762" width="328" height="26" as="geometry" />
        </mxCell>
        <mxCell id="_mon4JP7_cOclulxk8N5-33" value="+GetDownloadButton(): Button" style="text;strokeColor=none;fillColor=none;align=left;verticalAlign=top;spacingLeft=4;spacingRight=4;overflow=hidden;rotatable=0;points=[[0,0.5],[1,0.5]];portConstraint=eastwest;" parent="_mon4JP7_cOclulxk8N5-2" vertex="1">
          <mxGeometry y="788" width="328" height="26" as="geometry" />
        </mxCell>
        <mxCell id="_mon4JP7_cOclulxk8N5-34" value="+getShowRingChartButton(): Button" style="text;strokeColor=none;fillColor=none;align=left;verticalAlign=top;spacingLeft=4;spacingRight=4;overflow=hidden;rotatable=0;points=[[0,0.5],[1,0.5]];portConstraint=eastwest;" parent="_mon4JP7_cOclulxk8N5-2" vertex="1">
          <mxGeometry y="814" width="328" height="26" as="geometry" />
        </mxCell>
        <mxCell id="_mon4JP7_cOclulxk8N5-35" value="+getShowLineChartDialogButton(): Button" style="text;strokeColor=none;fillColor=none;align=left;verticalAlign=top;spacingLeft=4;spacingRight=4;overflow=hidden;rotatable=0;points=[[0,0.5],[1,0.5]];portConstraint=eastwest;" parent="_mon4JP7_cOclulxk8N5-2" vertex="1">
          <mxGeometry y="840" width="328" height="26" as="geometry" />
        </mxCell>
        <mxCell id="_mon4JP7_cOclulxk8N5-36" value="+getShowPresentationsByAuthorChartButton(): Button" style="text;strokeColor=none;fillColor=none;align=left;verticalAlign=top;spacingLeft=4;spacingRight=4;overflow=hidden;rotatable=0;points=[[0,0.5],[1,0.5]];portConstraint=eastwest;" parent="_mon4JP7_cOclulxk8N5-2" vertex="1">
          <mxGeometry y="866" width="328" height="26" as="geometry" />
        </mxCell>
        <mxCell id="_mon4JP7_cOclulxk8N5-37" value="+getShowPresentationsPerDayChartButton(): Button" style="text;strokeColor=none;fillColor=none;align=left;verticalAlign=top;spacingLeft=4;spacingRight=4;overflow=hidden;rotatable=0;points=[[0,0.5],[1,0.5]];portConstraint=eastwest;" parent="_mon4JP7_cOclulxk8N5-2" vertex="1">
          <mxGeometry y="892" width="328" height="26" as="geometry" />
        </mxCell>
        <mxCell id="_mon4JP7_cOclulxk8N5-38" value="+getShowParticipantsBySectionChartButton(): Button" style="text;strokeColor=none;fillColor=none;align=left;verticalAlign=top;spacingLeft=4;spacingRight=4;overflow=hidden;rotatable=0;points=[[0,0.5],[1,0.5]];portConstraint=eastwest;" parent="_mon4JP7_cOclulxk8N5-2" vertex="1">
          <mxGeometry y="918" width="328" height="26" as="geometry" />
        </mxCell>
        <mxCell id="_mon4JP7_cOclulxk8N5-39" value="+getShowParticipantsByConferenceChartButton(): Button" style="text;strokeColor=none;fillColor=none;align=left;verticalAlign=top;spacingLeft=4;spacingRight=4;overflow=hidden;rotatable=0;points=[[0,0.5],[1,0.5]];portConstraint=eastwest;" parent="_mon4JP7_cOclulxk8N5-2" vertex="1">
          <mxGeometry y="944" width="328" height="26" as="geometry" />
        </mxCell>
        <mxCell id="_mon4JP7_cOclulxk8N5-537" style="edgeStyle=orthogonalEdgeStyle;rounded=0;orthogonalLoop=1;jettySize=auto;html=1;entryX=0.25;entryY=0;entryDx=0;entryDy=0;jumpStyle=arc;" parent="1" source="_mon4JP7_cOclulxk8N5-40" target="_mon4JP7_cOclulxk8N5-392" edge="1">
          <mxGeometry relative="1" as="geometry">
            <Array as="points">
              <mxPoint x="480" y="1230" />
              <mxPoint x="620" y="1230" />
              <mxPoint x="620" y="804" />
            </Array>
          </mxGeometry>
        </mxCell>
        <mxCell id="_mon4JP7_cOclulxk8N5-40" value="ChartView" style="swimlane;fontStyle=1;childLayout=stackLayout;horizontal=1;startSize=26;horizontalStack=0;resizeParent=1;resizeParentMax=0;resizeLast=0;collapsible=1;marginBottom=0;" parent="1" vertex="1">
          <mxGeometry x="286" y="1670" width="264" height="190" as="geometry" />
        </mxCell>
        <mxCell id="_mon4JP7_cOclulxk8N5-41" value="" style="line;strokeWidth=1;fillColor=none;align=left;verticalAlign=middle;spacingTop=-1;spacingLeft=3;spacingRight=3;rotatable=0;labelPosition=right;points=[];portConstraint=eastwest;" parent="_mon4JP7_cOclulxk8N5-40" vertex="1">
          <mxGeometry y="26" width="264" height="8" as="geometry" />
        </mxCell>
        <mxCell id="_mon4JP7_cOclulxk8N5-42" value="+ShowRingChart(): void" style="text;strokeColor=none;fillColor=none;align=left;verticalAlign=top;spacingLeft=4;spacingRight=4;overflow=hidden;rotatable=0;points=[[0,0.5],[1,0.5]];portConstraint=eastwest;" parent="_mon4JP7_cOclulxk8N5-40" vertex="1">
          <mxGeometry y="34" width="264" height="26" as="geometry" />
        </mxCell>
        <mxCell id="_mon4JP7_cOclulxk8N5-43" value="+ShowLineChartDialog(): void" style="text;strokeColor=none;fillColor=none;align=left;verticalAlign=top;spacingLeft=4;spacingRight=4;overflow=hidden;rotatable=0;points=[[0,0.5],[1,0.5]];portConstraint=eastwest;" parent="_mon4JP7_cOclulxk8N5-40" vertex="1">
          <mxGeometry y="60" width="264" height="26" as="geometry" />
        </mxCell>
        <mxCell id="_mon4JP7_cOclulxk8N5-44" value="+ShowPresentationsByAuthorChart(): void" style="text;strokeColor=none;fillColor=none;align=left;verticalAlign=top;spacingLeft=4;spacingRight=4;overflow=hidden;rotatable=0;points=[[0,0.5],[1,0.5]];portConstraint=eastwest;" parent="_mon4JP7_cOclulxk8N5-40" vertex="1">
          <mxGeometry y="86" width="264" height="26" as="geometry" />
        </mxCell>
        <mxCell id="_mon4JP7_cOclulxk8N5-45" value="+ShowPresentationsPerDayChart(): void" style="text;strokeColor=none;fillColor=none;align=left;verticalAlign=top;spacingLeft=4;spacingRight=4;overflow=hidden;rotatable=0;points=[[0,0.5],[1,0.5]];portConstraint=eastwest;" parent="_mon4JP7_cOclulxk8N5-40" vertex="1">
          <mxGeometry y="112" width="264" height="26" as="geometry" />
        </mxCell>
        <mxCell id="_mon4JP7_cOclulxk8N5-46" value="+ShowParticipantsBySectionChart(): void" style="text;strokeColor=none;fillColor=none;align=left;verticalAlign=top;spacingLeft=4;spacingRight=4;overflow=hidden;rotatable=0;points=[[0,0.5],[1,0.5]];portConstraint=eastwest;" parent="_mon4JP7_cOclulxk8N5-40" vertex="1">
          <mxGeometry y="138" width="264" height="26" as="geometry" />
        </mxCell>
        <mxCell id="_mon4JP7_cOclulxk8N5-47" value="+ShowParticipantsByConferenceChart(): void" style="text;strokeColor=none;fillColor=none;align=left;verticalAlign=top;spacingLeft=4;spacingRight=4;overflow=hidden;rotatable=0;points=[[0,0.5],[1,0.5]];portConstraint=eastwest;" parent="_mon4JP7_cOclulxk8N5-40" vertex="1">
          <mxGeometry y="164" width="264" height="26" as="geometry" />
        </mxCell>
        <mxCell id="_mon4JP7_cOclulxk8N5-541" style="edgeStyle=orthogonalEdgeStyle;rounded=0;orthogonalLoop=1;jettySize=auto;html=1;jumpStyle=arc;" parent="1" source="_mon4JP7_cOclulxk8N5-48" target="_mon4JP7_cOclulxk8N5-415" edge="1">
          <mxGeometry relative="1" as="geometry">
            <Array as="points">
              <mxPoint x="682" y="1450" />
              <mxPoint x="1040" y="1450" />
            </Array>
          </mxGeometry>
        </mxCell>
        <mxCell id="_mon4JP7_cOclulxk8N5-48" value="HomeGUI" style="swimlane;fontStyle=1;childLayout=stackLayout;horizontal=1;startSize=26;horizontalStack=0;resizeParent=1;resizeParentMax=0;resizeLast=0;collapsible=1;marginBottom=0;" parent="1" vertex="1">
          <mxGeometry x="584" y="1660" width="195" height="242" as="geometry" />
        </mxCell>
        <mxCell id="_mon4JP7_cOclulxk8N5-49" value="-LoginButton: Button" style="text;strokeColor=none;fillColor=none;align=left;verticalAlign=top;spacingLeft=4;spacingRight=4;overflow=hidden;rotatable=0;points=[[0,0.5],[1,0.5]];portConstraint=eastwest;" parent="_mon4JP7_cOclulxk8N5-48" vertex="1">
          <mxGeometry y="26" width="195" height="26" as="geometry" />
        </mxCell>
        <mxCell id="_mon4JP7_cOclulxk8N5-50" value="-AdminButton: Button" style="text;strokeColor=none;fillColor=none;align=left;verticalAlign=top;spacingLeft=4;spacingRight=4;overflow=hidden;rotatable=0;points=[[0,0.5],[1,0.5]];portConstraint=eastwest;" parent="_mon4JP7_cOclulxk8N5-48" vertex="1">
          <mxGeometry y="52" width="195" height="26" as="geometry" />
        </mxCell>
        <mxCell id="_mon4JP7_cOclulxk8N5-51" value="-OrganizatorButton: Button" style="text;strokeColor=none;fillColor=none;align=left;verticalAlign=top;spacingLeft=4;spacingRight=4;overflow=hidden;rotatable=0;points=[[0,0.5],[1,0.5]];portConstraint=eastwest;" parent="_mon4JP7_cOclulxk8N5-48" vertex="1">
          <mxGeometry y="78" width="195" height="26" as="geometry" />
        </mxCell>
        <mxCell id="_mon4JP7_cOclulxk8N5-52" value="-UserButton: Button" style="text;strokeColor=none;fillColor=none;align=left;verticalAlign=top;spacingLeft=4;spacingRight=4;overflow=hidden;rotatable=0;points=[[0,0.5],[1,0.5]];portConstraint=eastwest;" parent="_mon4JP7_cOclulxk8N5-48" vertex="1">
          <mxGeometry y="104" width="195" height="26" as="geometry" />
        </mxCell>
        <mxCell id="_mon4JP7_cOclulxk8N5-53" value="" style="line;strokeWidth=1;fillColor=none;align=left;verticalAlign=middle;spacingTop=-1;spacingLeft=3;spacingRight=3;rotatable=0;labelPosition=right;points=[];portConstraint=eastwest;" parent="_mon4JP7_cOclulxk8N5-48" vertex="1">
          <mxGeometry y="130" width="195" height="8" as="geometry" />
        </mxCell>
        <mxCell id="_mon4JP7_cOclulxk8N5-54" value="+GetLoginButton(): Button" style="text;strokeColor=none;fillColor=none;align=left;verticalAlign=top;spacingLeft=4;spacingRight=4;overflow=hidden;rotatable=0;points=[[0,0.5],[1,0.5]];portConstraint=eastwest;" parent="_mon4JP7_cOclulxk8N5-48" vertex="1">
          <mxGeometry y="138" width="195" height="26" as="geometry" />
        </mxCell>
        <mxCell id="_mon4JP7_cOclulxk8N5-55" value="+GetAdminButton(): Button" style="text;strokeColor=none;fillColor=none;align=left;verticalAlign=top;spacingLeft=4;spacingRight=4;overflow=hidden;rotatable=0;points=[[0,0.5],[1,0.5]];portConstraint=eastwest;" parent="_mon4JP7_cOclulxk8N5-48" vertex="1">
          <mxGeometry y="164" width="195" height="26" as="geometry" />
        </mxCell>
        <mxCell id="_mon4JP7_cOclulxk8N5-56" value="+GetOrganizatorButton(): Button" style="text;strokeColor=none;fillColor=none;align=left;verticalAlign=top;spacingLeft=4;spacingRight=4;overflow=hidden;rotatable=0;points=[[0,0.5],[1,0.5]];portConstraint=eastwest;" parent="_mon4JP7_cOclulxk8N5-48" vertex="1">
          <mxGeometry y="190" width="195" height="26" as="geometry" />
        </mxCell>
        <mxCell id="_mon4JP7_cOclulxk8N5-57" value="+GetUserButton(): Button" style="text;strokeColor=none;fillColor=none;align=left;verticalAlign=top;spacingLeft=4;spacingRight=4;overflow=hidden;rotatable=0;points=[[0,0.5],[1,0.5]];portConstraint=eastwest;" parent="_mon4JP7_cOclulxk8N5-48" vertex="1">
          <mxGeometry y="216" width="195" height="26" as="geometry" />
        </mxCell>
        <mxCell id="_mon4JP7_cOclulxk8N5-542" style="edgeStyle=orthogonalEdgeStyle;rounded=0;orthogonalLoop=1;jettySize=auto;html=1;entryX=0.5;entryY=0;entryDx=0;entryDy=0;jumpStyle=arc;" parent="1" source="_mon4JP7_cOclulxk8N5-58" target="_mon4JP7_cOclulxk8N5-517" edge="1">
          <mxGeometry relative="1" as="geometry">
            <Array as="points">
              <mxPoint x="910" y="40" />
              <mxPoint x="508" y="40" />
            </Array>
          </mxGeometry>
        </mxCell>
        <mxCell id="_mon4JP7_cOclulxk8N5-58" value="LoginGUI" style="swimlane;fontStyle=1;childLayout=stackLayout;horizontal=1;startSize=26;horizontalStack=0;resizeParent=1;resizeParentMax=0;resizeLast=0;collapsible=1;marginBottom=0;" parent="1" vertex="1">
          <mxGeometry x="830" y="1660" width="232" height="190" as="geometry" />
        </mxCell>
        <mxCell id="_mon4JP7_cOclulxk8N5-59" value="-EmailTextBox: TextBox" style="text;strokeColor=none;fillColor=none;align=left;verticalAlign=top;spacingLeft=4;spacingRight=4;overflow=hidden;rotatable=0;points=[[0,0.5],[1,0.5]];portConstraint=eastwest;" parent="_mon4JP7_cOclulxk8N5-58" vertex="1">
          <mxGeometry y="26" width="232" height="26" as="geometry" />
        </mxCell>
        <mxCell id="_mon4JP7_cOclulxk8N5-60" value="-PasswordTextBox: PasswordBox" style="text;strokeColor=none;fillColor=none;align=left;verticalAlign=top;spacingLeft=4;spacingRight=4;overflow=hidden;rotatable=0;points=[[0,0.5],[1,0.5]];portConstraint=eastwest;" parent="_mon4JP7_cOclulxk8N5-58" vertex="1">
          <mxGeometry y="52" width="232" height="26" as="geometry" />
        </mxCell>
        <mxCell id="_mon4JP7_cOclulxk8N5-61" value="-LoginButton: Button" style="text;strokeColor=none;fillColor=none;align=left;verticalAlign=top;spacingLeft=4;spacingRight=4;overflow=hidden;rotatable=0;points=[[0,0.5],[1,0.5]];portConstraint=eastwest;" parent="_mon4JP7_cOclulxk8N5-58" vertex="1">
          <mxGeometry y="78" width="232" height="26" as="geometry" />
        </mxCell>
        <mxCell id="_mon4JP7_cOclulxk8N5-62" value="" style="line;strokeWidth=1;fillColor=none;align=left;verticalAlign=middle;spacingTop=-1;spacingLeft=3;spacingRight=3;rotatable=0;labelPosition=right;points=[];portConstraint=eastwest;" parent="_mon4JP7_cOclulxk8N5-58" vertex="1">
          <mxGeometry y="104" width="232" height="8" as="geometry" />
        </mxCell>
        <mxCell id="_mon4JP7_cOclulxk8N5-63" value="+GetEmailTextBox(): TextBox" style="text;strokeColor=none;fillColor=none;align=left;verticalAlign=top;spacingLeft=4;spacingRight=4;overflow=hidden;rotatable=0;points=[[0,0.5],[1,0.5]];portConstraint=eastwest;" parent="_mon4JP7_cOclulxk8N5-58" vertex="1">
          <mxGeometry y="112" width="232" height="26" as="geometry" />
        </mxCell>
        <mxCell id="_mon4JP7_cOclulxk8N5-64" value="+GetPasswordTextBox(): PasswordBox" style="text;strokeColor=none;fillColor=none;align=left;verticalAlign=top;spacingLeft=4;spacingRight=4;overflow=hidden;rotatable=0;points=[[0,0.5],[1,0.5]];portConstraint=eastwest;" parent="_mon4JP7_cOclulxk8N5-58" vertex="1">
          <mxGeometry y="138" width="232" height="26" as="geometry" />
        </mxCell>
        <mxCell id="_mon4JP7_cOclulxk8N5-65" value="+GetLoginButton(): Button" style="text;strokeColor=none;fillColor=none;align=left;verticalAlign=top;spacingLeft=4;spacingRight=4;overflow=hidden;rotatable=0;points=[[0,0.5],[1,0.5]];portConstraint=eastwest;" parent="_mon4JP7_cOclulxk8N5-58" vertex="1">
          <mxGeometry y="164" width="232" height="26" as="geometry" />
        </mxCell>
        <mxCell id="_mon4JP7_cOclulxk8N5-538" style="edgeStyle=orthogonalEdgeStyle;rounded=0;orthogonalLoop=1;jettySize=auto;html=1;jumpStyle=arc;" parent="1" source="_mon4JP7_cOclulxk8N5-66" target="_mon4JP7_cOclulxk8N5-407" edge="1">
          <mxGeometry relative="1" as="geometry" />
        </mxCell>
        <mxCell id="_mon4JP7_cOclulxk8N5-539" style="edgeStyle=orthogonalEdgeStyle;rounded=0;orthogonalLoop=1;jettySize=auto;html=1;jumpStyle=arc;" parent="1" source="_mon4JP7_cOclulxk8N5-66" target="_mon4JP7_cOclulxk8N5-454" edge="1">
          <mxGeometry relative="1" as="geometry">
            <Array as="points">
              <mxPoint x="1222" y="1360" />
              <mxPoint x="762" y="1360" />
            </Array>
          </mxGeometry>
        </mxCell>
        <mxCell id="_mon4JP7_cOclulxk8N5-540" style="edgeStyle=orthogonalEdgeStyle;rounded=0;orthogonalLoop=1;jettySize=auto;html=1;jumpStyle=arc;" parent="1" source="_mon4JP7_cOclulxk8N5-66" target="_mon4JP7_cOclulxk8N5-402" edge="1">
          <mxGeometry relative="1" as="geometry">
            <Array as="points">
              <mxPoint x="1222" y="1360" />
              <mxPoint x="910" y="1360" />
              <mxPoint x="910" y="695" />
            </Array>
          </mxGeometry>
        </mxCell>
        <mxCell id="_mon4JP7_cOclulxk8N5-66" value="OrganizatorGUI" style="swimlane;fontStyle=1;childLayout=stackLayout;horizontal=1;startSize=26;horizontalStack=0;resizeParent=1;resizeParentMax=0;resizeLast=0;collapsible=1;marginBottom=0;" parent="1" vertex="1">
          <mxGeometry x="1105" y="1660" width="233" height="346" as="geometry" />
        </mxCell>
        <mxCell id="_mon4JP7_cOclulxk8N5-67" value="-CreateConferenceButton: Button" style="text;strokeColor=none;fillColor=none;align=left;verticalAlign=top;spacingLeft=4;spacingRight=4;overflow=hidden;rotatable=0;points=[[0,0.5],[1,0.5]];portConstraint=eastwest;" parent="_mon4JP7_cOclulxk8N5-66" vertex="1">
          <mxGeometry y="26" width="233" height="26" as="geometry" />
        </mxCell>
        <mxCell id="_mon4JP7_cOclulxk8N5-68" value="-UpdateConferenceButton: Button" style="text;strokeColor=none;fillColor=none;align=left;verticalAlign=top;spacingLeft=4;spacingRight=4;overflow=hidden;rotatable=0;points=[[0,0.5],[1,0.5]];portConstraint=eastwest;" parent="_mon4JP7_cOclulxk8N5-66" vertex="1">
          <mxGeometry y="52" width="233" height="26" as="geometry" />
        </mxCell>
        <mxCell id="_mon4JP7_cOclulxk8N5-69" value="-DeleteConferenceButton: Button" style="text;strokeColor=none;fillColor=none;align=left;verticalAlign=top;spacingLeft=4;spacingRight=4;overflow=hidden;rotatable=0;points=[[0,0.5],[1,0.5]];portConstraint=eastwest;" parent="_mon4JP7_cOclulxk8N5-66" vertex="1">
          <mxGeometry y="78" width="233" height="26" as="geometry" />
        </mxCell>
        <mxCell id="_mon4JP7_cOclulxk8N5-70" value="-SearchConferenceButton: Button" style="text;strokeColor=none;fillColor=none;align=left;verticalAlign=top;spacingLeft=4;spacingRight=4;overflow=hidden;rotatable=0;points=[[0,0.5],[1,0.5]];portConstraint=eastwest;" parent="_mon4JP7_cOclulxk8N5-66" vertex="1">
          <mxGeometry y="104" width="233" height="26" as="geometry" />
        </mxCell>
        <mxCell id="_mon4JP7_cOclulxk8N5-71" value="-LogOutButton: Button" style="text;strokeColor=none;fillColor=none;align=left;verticalAlign=top;spacingLeft=4;spacingRight=4;overflow=hidden;rotatable=0;points=[[0,0.5],[1,0.5]];portConstraint=eastwest;" parent="_mon4JP7_cOclulxk8N5-66" vertex="1">
          <mxGeometry y="130" width="233" height="26" as="geometry" />
        </mxCell>
        <mxCell id="_mon4JP7_cOclulxk8N5-72" value="-ConferenceTable: DataGrid" style="text;strokeColor=none;fillColor=none;align=left;verticalAlign=top;spacingLeft=4;spacingRight=4;overflow=hidden;rotatable=0;points=[[0,0.5],[1,0.5]];portConstraint=eastwest;" parent="_mon4JP7_cOclulxk8N5-66" vertex="1">
          <mxGeometry y="156" width="233" height="26" as="geometry" />
        </mxCell>
        <mxCell id="_mon4JP7_cOclulxk8N5-73" value="" style="line;strokeWidth=1;fillColor=none;align=left;verticalAlign=middle;spacingTop=-1;spacingLeft=3;spacingRight=3;rotatable=0;labelPosition=right;points=[];portConstraint=eastwest;" parent="_mon4JP7_cOclulxk8N5-66" vertex="1">
          <mxGeometry y="182" width="233" height="8" as="geometry" />
        </mxCell>
        <mxCell id="_mon4JP7_cOclulxk8N5-74" value="+GetCreateConferenceButton(): Button" style="text;strokeColor=none;fillColor=none;align=left;verticalAlign=top;spacingLeft=4;spacingRight=4;overflow=hidden;rotatable=0;points=[[0,0.5],[1,0.5]];portConstraint=eastwest;" parent="_mon4JP7_cOclulxk8N5-66" vertex="1">
          <mxGeometry y="190" width="233" height="26" as="geometry" />
        </mxCell>
        <mxCell id="_mon4JP7_cOclulxk8N5-75" value="+GetUpdateConferenceButton(): Button" style="text;strokeColor=none;fillColor=none;align=left;verticalAlign=top;spacingLeft=4;spacingRight=4;overflow=hidden;rotatable=0;points=[[0,0.5],[1,0.5]];portConstraint=eastwest;" parent="_mon4JP7_cOclulxk8N5-66" vertex="1">
          <mxGeometry y="216" width="233" height="26" as="geometry" />
        </mxCell>
        <mxCell id="_mon4JP7_cOclulxk8N5-76" value="+GetDeleteConferenceButton(): Button" style="text;strokeColor=none;fillColor=none;align=left;verticalAlign=top;spacingLeft=4;spacingRight=4;overflow=hidden;rotatable=0;points=[[0,0.5],[1,0.5]];portConstraint=eastwest;" parent="_mon4JP7_cOclulxk8N5-66" vertex="1">
          <mxGeometry y="242" width="233" height="26" as="geometry" />
        </mxCell>
        <mxCell id="_mon4JP7_cOclulxk8N5-77" value="+GetSearchConferenceButton(): Button" style="text;strokeColor=none;fillColor=none;align=left;verticalAlign=top;spacingLeft=4;spacingRight=4;overflow=hidden;rotatable=0;points=[[0,0.5],[1,0.5]];portConstraint=eastwest;" parent="_mon4JP7_cOclulxk8N5-66" vertex="1">
          <mxGeometry y="268" width="233" height="26" as="geometry" />
        </mxCell>
        <mxCell id="_mon4JP7_cOclulxk8N5-78" value="+GetLogOutButton(): Button" style="text;strokeColor=none;fillColor=none;align=left;verticalAlign=top;spacingLeft=4;spacingRight=4;overflow=hidden;rotatable=0;points=[[0,0.5],[1,0.5]];portConstraint=eastwest;" parent="_mon4JP7_cOclulxk8N5-66" vertex="1">
          <mxGeometry y="294" width="233" height="26" as="geometry" />
        </mxCell>
        <mxCell id="_mon4JP7_cOclulxk8N5-79" value="+GetConferenceTable(): DataGrid" style="text;strokeColor=none;fillColor=none;align=left;verticalAlign=top;spacingLeft=4;spacingRight=4;overflow=hidden;rotatable=0;points=[[0,0.5],[1,0.5]];portConstraint=eastwest;" parent="_mon4JP7_cOclulxk8N5-66" vertex="1">
          <mxGeometry y="320" width="233" height="26" as="geometry" />
        </mxCell>
        <mxCell id="_mon4JP7_cOclulxk8N5-543" style="edgeStyle=orthogonalEdgeStyle;rounded=0;orthogonalLoop=1;jettySize=auto;html=1;entryX=0.75;entryY=0;entryDx=0;entryDy=0;jumpStyle=arc;" parent="1" source="_mon4JP7_cOclulxk8N5-80" target="_mon4JP7_cOclulxk8N5-461" edge="1">
          <mxGeometry relative="1" as="geometry" />
        </mxCell>
        <mxCell id="_mon4JP7_cOclulxk8N5-80" value="UtilizatorGUI" style="swimlane;fontStyle=1;childLayout=stackLayout;horizontal=1;startSize=26;horizontalStack=0;resizeParent=1;resizeParentMax=0;resizeLast=0;collapsible=1;marginBottom=0;" parent="1" vertex="1">
          <mxGeometry x="960" y="1490" width="195" height="138" as="geometry" />
        </mxCell>
        <mxCell id="_mon4JP7_cOclulxk8N5-81" value="-BackButton: Button" style="text;strokeColor=none;fillColor=none;align=left;verticalAlign=top;spacingLeft=4;spacingRight=4;overflow=hidden;rotatable=0;points=[[0,0.5],[1,0.5]];portConstraint=eastwest;" parent="_mon4JP7_cOclulxk8N5-80" vertex="1">
          <mxGeometry y="26" width="195" height="26" as="geometry" />
        </mxCell>
        <mxCell id="_mon4JP7_cOclulxk8N5-82" value="-ConferenceTable: DataGrid" style="text;strokeColor=none;fillColor=none;align=left;verticalAlign=top;spacingLeft=4;spacingRight=4;overflow=hidden;rotatable=0;points=[[0,0.5],[1,0.5]];portConstraint=eastwest;" parent="_mon4JP7_cOclulxk8N5-80" vertex="1">
          <mxGeometry y="52" width="195" height="26" as="geometry" />
        </mxCell>
        <mxCell id="_mon4JP7_cOclulxk8N5-83" value="" style="line;strokeWidth=1;fillColor=none;align=left;verticalAlign=middle;spacingTop=-1;spacingLeft=3;spacingRight=3;rotatable=0;labelPosition=right;points=[];portConstraint=eastwest;" parent="_mon4JP7_cOclulxk8N5-80" vertex="1">
          <mxGeometry y="78" width="195" height="8" as="geometry" />
        </mxCell>
        <mxCell id="_mon4JP7_cOclulxk8N5-84" value="+GetBackButton(): Button" style="text;strokeColor=none;fillColor=none;align=left;verticalAlign=top;spacingLeft=4;spacingRight=4;overflow=hidden;rotatable=0;points=[[0,0.5],[1,0.5]];portConstraint=eastwest;" parent="_mon4JP7_cOclulxk8N5-80" vertex="1">
          <mxGeometry y="86" width="195" height="26" as="geometry" />
        </mxCell>
        <mxCell id="_mon4JP7_cOclulxk8N5-85" value="+GetTabelConferinte(): DataGrid" style="text;strokeColor=none;fillColor=none;align=left;verticalAlign=top;spacingLeft=4;spacingRight=4;overflow=hidden;rotatable=0;points=[[0,0.5],[1,0.5]];portConstraint=eastwest;" parent="_mon4JP7_cOclulxk8N5-80" vertex="1">
          <mxGeometry y="112" width="195" height="26" as="geometry" />
        </mxCell>
        <mxCell id="_mon4JP7_cOclulxk8N5-86" value="&lt;font style=&quot;font-size: 26px;&quot;&gt;Model&lt;/font&gt;" style="shape=folder;fontStyle=1;spacingTop=10;tabWidth=40;tabHeight=14;tabPosition=left;html=1;whiteSpace=wrap;verticalAlign=top;fillColor=#d5e8d4;strokeColor=#82b366;" parent="1" vertex="1">
          <mxGeometry x="-320" y="-980" width="1793.5" height="930" as="geometry" />
        </mxCell>
        <mxCell id="_mon4JP7_cOclulxk8N5-87" value="Conference" style="swimlane;fontStyle=1;childLayout=stackLayout;horizontal=1;startSize=26;horizontalStack=0;resizeParent=1;resizeParentMax=0;resizeLast=0;collapsible=1;marginBottom=0;" parent="1" vertex="1">
          <mxGeometry x="-290" y="-960" width="270" height="372" as="geometry" />
        </mxCell>
        <mxCell id="_mon4JP7_cOclulxk8N5-88" value="-Id: int" style="text;strokeColor=none;fillColor=none;align=left;verticalAlign=top;spacingLeft=4;spacingRight=4;overflow=hidden;rotatable=0;points=[[0,0.5],[1,0.5]];portConstraint=eastwest;" parent="_mon4JP7_cOclulxk8N5-87" vertex="1">
          <mxGeometry y="26" width="270" height="26" as="geometry" />
        </mxCell>
        <mxCell id="_mon4JP7_cOclulxk8N5-89" value="-Title: string" style="text;strokeColor=none;fillColor=none;align=left;verticalAlign=top;spacingLeft=4;spacingRight=4;overflow=hidden;rotatable=0;points=[[0,0.5],[1,0.5]];portConstraint=eastwest;" parent="_mon4JP7_cOclulxk8N5-87" vertex="1">
          <mxGeometry y="52" width="270" height="26" as="geometry" />
        </mxCell>
        <mxCell id="_mon4JP7_cOclulxk8N5-90" value="-Location: string" style="text;strokeColor=none;fillColor=none;align=left;verticalAlign=top;spacingLeft=4;spacingRight=4;overflow=hidden;rotatable=0;points=[[0,0.5],[1,0.5]];portConstraint=eastwest;" parent="_mon4JP7_cOclulxk8N5-87" vertex="1">
          <mxGeometry y="78" width="270" height="26" as="geometry" />
        </mxCell>
        <mxCell id="_mon4JP7_cOclulxk8N5-91" value="-Date: DateTime" style="text;strokeColor=none;fillColor=none;align=left;verticalAlign=top;spacingLeft=4;spacingRight=4;overflow=hidden;rotatable=0;points=[[0,0.5],[1,0.5]];portConstraint=eastwest;" parent="_mon4JP7_cOclulxk8N5-87" vertex="1">
          <mxGeometry y="104" width="270" height="26" as="geometry" />
        </mxCell>
        <mxCell id="_mon4JP7_cOclulxk8N5-92" value="" style="line;strokeWidth=1;fillColor=none;align=left;verticalAlign=middle;spacingTop=-1;spacingLeft=3;spacingRight=3;rotatable=0;labelPosition=right;points=[];portConstraint=eastwest;" parent="_mon4JP7_cOclulxk8N5-87" vertex="1">
          <mxGeometry y="130" width="270" height="8" as="geometry" />
        </mxCell>
        <mxCell id="_mon4JP7_cOclulxk8N5-93" value="+getId(): int" style="text;strokeColor=none;fillColor=none;align=left;verticalAlign=top;spacingLeft=4;spacingRight=4;overflow=hidden;rotatable=0;points=[[0,0.5],[1,0.5]];portConstraint=eastwest;" parent="_mon4JP7_cOclulxk8N5-87" vertex="1">
          <mxGeometry y="138" width="270" height="26" as="geometry" />
        </mxCell>
        <mxCell id="_mon4JP7_cOclulxk8N5-94" value="+setId(int): void" style="text;strokeColor=none;fillColor=none;align=left;verticalAlign=top;spacingLeft=4;spacingRight=4;overflow=hidden;rotatable=0;points=[[0,0.5],[1,0.5]];portConstraint=eastwest;" parent="_mon4JP7_cOclulxk8N5-87" vertex="1">
          <mxGeometry y="164" width="270" height="26" as="geometry" />
        </mxCell>
        <mxCell id="_mon4JP7_cOclulxk8N5-95" value="+getTitle(): string" style="text;strokeColor=none;fillColor=none;align=left;verticalAlign=top;spacingLeft=4;spacingRight=4;overflow=hidden;rotatable=0;points=[[0,0.5],[1,0.5]];portConstraint=eastwest;" parent="_mon4JP7_cOclulxk8N5-87" vertex="1">
          <mxGeometry y="190" width="270" height="26" as="geometry" />
        </mxCell>
        <mxCell id="_mon4JP7_cOclulxk8N5-96" value="+setTitle(string): void" style="text;strokeColor=none;fillColor=none;align=left;verticalAlign=top;spacingLeft=4;spacingRight=4;overflow=hidden;rotatable=0;points=[[0,0.5],[1,0.5]];portConstraint=eastwest;" parent="_mon4JP7_cOclulxk8N5-87" vertex="1">
          <mxGeometry y="216" width="270" height="26" as="geometry" />
        </mxCell>
        <mxCell id="_mon4JP7_cOclulxk8N5-97" value="+getLocation(): string" style="text;strokeColor=none;fillColor=none;align=left;verticalAlign=top;spacingLeft=4;spacingRight=4;overflow=hidden;rotatable=0;points=[[0,0.5],[1,0.5]];portConstraint=eastwest;" parent="_mon4JP7_cOclulxk8N5-87" vertex="1">
          <mxGeometry y="242" width="270" height="26" as="geometry" />
        </mxCell>
        <mxCell id="_mon4JP7_cOclulxk8N5-98" value="+setLocation(string): void" style="text;strokeColor=none;fillColor=none;align=left;verticalAlign=top;spacingLeft=4;spacingRight=4;overflow=hidden;rotatable=0;points=[[0,0.5],[1,0.5]];portConstraint=eastwest;" parent="_mon4JP7_cOclulxk8N5-87" vertex="1">
          <mxGeometry y="268" width="270" height="26" as="geometry" />
        </mxCell>
        <mxCell id="_mon4JP7_cOclulxk8N5-99" value="+getDate(): DateTime" style="text;strokeColor=none;fillColor=none;align=left;verticalAlign=top;spacingLeft=4;spacingRight=4;overflow=hidden;rotatable=0;points=[[0,0.5],[1,0.5]];portConstraint=eastwest;" parent="_mon4JP7_cOclulxk8N5-87" vertex="1">
          <mxGeometry y="294" width="270" height="26" as="geometry" />
        </mxCell>
        <mxCell id="_mon4JP7_cOclulxk8N5-100" value="+setDate(DateTime): void" style="text;strokeColor=none;fillColor=none;align=left;verticalAlign=top;spacingLeft=4;spacingRight=4;overflow=hidden;rotatable=0;points=[[0,0.5],[1,0.5]];portConstraint=eastwest;" parent="_mon4JP7_cOclulxk8N5-87" vertex="1">
          <mxGeometry y="320" width="270" height="26" as="geometry" />
        </mxCell>
        <mxCell id="_mon4JP7_cOclulxk8N5-101" value="+dummyConferenceData(): List&lt;Conference&gt;" style="text;strokeColor=none;fillColor=none;align=left;verticalAlign=top;spacingLeft=4;spacingRight=4;overflow=hidden;rotatable=0;points=[[0,0.5],[1,0.5]];portConstraint=eastwest;" parent="_mon4JP7_cOclulxk8N5-87" vertex="1">
          <mxGeometry y="346" width="270" height="26" as="geometry" />
        </mxCell>
        <mxCell id="_mon4JP7_cOclulxk8N5-102" value="IObserver" style="swimlane;fontStyle=1;childLayout=stackLayout;horizontal=1;startSize=26;horizontalStack=0;resizeParent=1;resizeParentMax=0;resizeLast=0;collapsible=1;marginBottom=0;" parent="1" vertex="1">
          <mxGeometry x="33.5" y="-950" width="160" height="60" as="geometry" />
        </mxCell>
        <mxCell id="_mon4JP7_cOclulxk8N5-103" value="" style="line;strokeWidth=1;fillColor=none;align=left;verticalAlign=middle;spacingTop=-1;spacingLeft=3;spacingRight=3;rotatable=0;labelPosition=right;points=[];portConstraint=eastwest;" parent="_mon4JP7_cOclulxk8N5-102" vertex="1">
          <mxGeometry y="26" width="160" height="8" as="geometry" />
        </mxCell>
        <mxCell id="_mon4JP7_cOclulxk8N5-104" value="+Update(): void" style="text;strokeColor=none;fillColor=none;align=left;verticalAlign=top;spacingLeft=4;spacingRight=4;overflow=hidden;rotatable=0;points=[[0,0.5],[1,0.5]];portConstraint=eastwest;" parent="_mon4JP7_cOclulxk8N5-102" vertex="1">
          <mxGeometry y="34" width="160" height="26" as="geometry" />
        </mxCell>
        <mxCell id="_mon4JP7_cOclulxk8N5-105" value="Participant" style="swimlane;fontStyle=1;childLayout=stackLayout;horizontal=1;startSize=26;horizontalStack=0;resizeParent=1;resizeParentMax=0;resizeLast=0;collapsible=1;marginBottom=0;" parent="1" vertex="1">
          <mxGeometry x="-290" y="-570" width="160" height="424" as="geometry" />
        </mxCell>
        <mxCell id="_mon4JP7_cOclulxk8N5-106" value="-Id: int" style="text;strokeColor=none;fillColor=none;align=left;verticalAlign=top;spacingLeft=4;spacingRight=4;overflow=hidden;rotatable=0;points=[[0,0.5],[1,0.5]];portConstraint=eastwest;" parent="_mon4JP7_cOclulxk8N5-105" vertex="1">
          <mxGeometry y="26" width="160" height="26" as="geometry" />
        </mxCell>
        <mxCell id="_mon4JP7_cOclulxk8N5-107" value="-Name: string" style="text;strokeColor=none;fillColor=none;align=left;verticalAlign=top;spacingLeft=4;spacingRight=4;overflow=hidden;rotatable=0;points=[[0,0.5],[1,0.5]];portConstraint=eastwest;" parent="_mon4JP7_cOclulxk8N5-105" vertex="1">
          <mxGeometry y="52" width="160" height="26" as="geometry" />
        </mxCell>
        <mxCell id="_mon4JP7_cOclulxk8N5-108" value="-Email: string" style="text;strokeColor=none;fillColor=none;align=left;verticalAlign=top;spacingLeft=4;spacingRight=4;overflow=hidden;rotatable=0;points=[[0,0.5],[1,0.5]];portConstraint=eastwest;" parent="_mon4JP7_cOclulxk8N5-105" vertex="1">
          <mxGeometry y="78" width="160" height="26" as="geometry" />
        </mxCell>
        <mxCell id="_mon4JP7_cOclulxk8N5-109" value="-Phone: string" style="text;strokeColor=none;fillColor=none;align=left;verticalAlign=top;spacingLeft=4;spacingRight=4;overflow=hidden;rotatable=0;points=[[0,0.5],[1,0.5]];portConstraint=eastwest;" parent="_mon4JP7_cOclulxk8N5-105" vertex="1">
          <mxGeometry y="104" width="160" height="26" as="geometry" />
        </mxCell>
        <mxCell id="_mon4JP7_cOclulxk8N5-110" value="-CNP: string" style="text;strokeColor=none;fillColor=none;align=left;verticalAlign=top;spacingLeft=4;spacingRight=4;overflow=hidden;rotatable=0;points=[[0,0.5],[1,0.5]];portConstraint=eastwest;" parent="_mon4JP7_cOclulxk8N5-105" vertex="1">
          <mxGeometry y="130" width="160" height="26" as="geometry" />
        </mxCell>
        <mxCell id="_mon4JP7_cOclulxk8N5-111" value="" style="line;strokeWidth=1;fillColor=none;align=left;verticalAlign=middle;spacingTop=-1;spacingLeft=3;spacingRight=3;rotatable=0;labelPosition=right;points=[];portConstraint=eastwest;" parent="_mon4JP7_cOclulxk8N5-105" vertex="1">
          <mxGeometry y="156" width="160" height="8" as="geometry" />
        </mxCell>
        <mxCell id="_mon4JP7_cOclulxk8N5-112" value="+getId(): int" style="text;strokeColor=none;fillColor=none;align=left;verticalAlign=top;spacingLeft=4;spacingRight=4;overflow=hidden;rotatable=0;points=[[0,0.5],[1,0.5]];portConstraint=eastwest;" parent="_mon4JP7_cOclulxk8N5-105" vertex="1">
          <mxGeometry y="164" width="160" height="26" as="geometry" />
        </mxCell>
        <mxCell id="_mon4JP7_cOclulxk8N5-113" value="+setId(int): void" style="text;strokeColor=none;fillColor=none;align=left;verticalAlign=top;spacingLeft=4;spacingRight=4;overflow=hidden;rotatable=0;points=[[0,0.5],[1,0.5]];portConstraint=eastwest;" parent="_mon4JP7_cOclulxk8N5-105" vertex="1">
          <mxGeometry y="190" width="160" height="26" as="geometry" />
        </mxCell>
        <mxCell id="_mon4JP7_cOclulxk8N5-114" value="+getName(): string" style="text;strokeColor=none;fillColor=none;align=left;verticalAlign=top;spacingLeft=4;spacingRight=4;overflow=hidden;rotatable=0;points=[[0,0.5],[1,0.5]];portConstraint=eastwest;" parent="_mon4JP7_cOclulxk8N5-105" vertex="1">
          <mxGeometry y="216" width="160" height="26" as="geometry" />
        </mxCell>
        <mxCell id="_mon4JP7_cOclulxk8N5-115" value="+setName(string): void" style="text;strokeColor=none;fillColor=none;align=left;verticalAlign=top;spacingLeft=4;spacingRight=4;overflow=hidden;rotatable=0;points=[[0,0.5],[1,0.5]];portConstraint=eastwest;" parent="_mon4JP7_cOclulxk8N5-105" vertex="1">
          <mxGeometry y="242" width="160" height="26" as="geometry" />
        </mxCell>
        <mxCell id="_mon4JP7_cOclulxk8N5-116" value="+getEmail(): string" style="text;strokeColor=none;fillColor=none;align=left;verticalAlign=top;spacingLeft=4;spacingRight=4;overflow=hidden;rotatable=0;points=[[0,0.5],[1,0.5]];portConstraint=eastwest;" parent="_mon4JP7_cOclulxk8N5-105" vertex="1">
          <mxGeometry y="268" width="160" height="26" as="geometry" />
        </mxCell>
        <mxCell id="_mon4JP7_cOclulxk8N5-117" value="+setEmail(string): void" style="text;strokeColor=none;fillColor=none;align=left;verticalAlign=top;spacingLeft=4;spacingRight=4;overflow=hidden;rotatable=0;points=[[0,0.5],[1,0.5]];portConstraint=eastwest;" parent="_mon4JP7_cOclulxk8N5-105" vertex="1">
          <mxGeometry y="294" width="160" height="26" as="geometry" />
        </mxCell>
        <mxCell id="_mon4JP7_cOclulxk8N5-118" value="+getPhone(): string" style="text;strokeColor=none;fillColor=none;align=left;verticalAlign=top;spacingLeft=4;spacingRight=4;overflow=hidden;rotatable=0;points=[[0,0.5],[1,0.5]];portConstraint=eastwest;" parent="_mon4JP7_cOclulxk8N5-105" vertex="1">
          <mxGeometry y="320" width="160" height="26" as="geometry" />
        </mxCell>
        <mxCell id="_mon4JP7_cOclulxk8N5-119" value="+setPhone(string): void" style="text;strokeColor=none;fillColor=none;align=left;verticalAlign=top;spacingLeft=4;spacingRight=4;overflow=hidden;rotatable=0;points=[[0,0.5],[1,0.5]];portConstraint=eastwest;" parent="_mon4JP7_cOclulxk8N5-105" vertex="1">
          <mxGeometry y="346" width="160" height="26" as="geometry" />
        </mxCell>
        <mxCell id="_mon4JP7_cOclulxk8N5-120" value="+getCNP(): string" style="text;strokeColor=none;fillColor=none;align=left;verticalAlign=top;spacingLeft=4;spacingRight=4;overflow=hidden;rotatable=0;points=[[0,0.5],[1,0.5]];portConstraint=eastwest;" parent="_mon4JP7_cOclulxk8N5-105" vertex="1">
          <mxGeometry y="372" width="160" height="26" as="geometry" />
        </mxCell>
        <mxCell id="_mon4JP7_cOclulxk8N5-121" value="+setCNP(string): void" style="text;strokeColor=none;fillColor=none;align=left;verticalAlign=top;spacingLeft=4;spacingRight=4;overflow=hidden;rotatable=0;points=[[0,0.5],[1,0.5]];portConstraint=eastwest;" parent="_mon4JP7_cOclulxk8N5-105" vertex="1">
          <mxGeometry y="398" width="160" height="26" as="geometry" />
        </mxCell>
        <mxCell id="_mon4JP7_cOclulxk8N5-122" value="Presentation" style="swimlane;fontStyle=1;childLayout=stackLayout;horizontal=1;startSize=26;horizontalStack=0;resizeParent=1;resizeParentMax=0;resizeLast=0;collapsible=1;marginBottom=0;" parent="1" vertex="1">
          <mxGeometry x="-110" y="-561" width="280" height="450" as="geometry" />
        </mxCell>
        <mxCell id="_mon4JP7_cOclulxk8N5-123" value="-Id: int" style="text;strokeColor=none;fillColor=none;align=left;verticalAlign=top;spacingLeft=4;spacingRight=4;overflow=hidden;rotatable=0;points=[[0,0.5],[1,0.5]];portConstraint=eastwest;" parent="_mon4JP7_cOclulxk8N5-122" vertex="1">
          <mxGeometry y="26" width="280" height="26" as="geometry" />
        </mxCell>
        <mxCell id="_mon4JP7_cOclulxk8N5-124" value="-Title: string" style="text;strokeColor=none;fillColor=none;align=left;verticalAlign=top;spacingLeft=4;spacingRight=4;overflow=hidden;rotatable=0;points=[[0,0.5],[1,0.5]];portConstraint=eastwest;" parent="_mon4JP7_cOclulxk8N5-122" vertex="1">
          <mxGeometry y="52" width="280" height="26" as="geometry" />
        </mxCell>
        <mxCell id="_mon4JP7_cOclulxk8N5-125" value="-Description: string" style="text;strokeColor=none;fillColor=none;align=left;verticalAlign=top;spacingLeft=4;spacingRight=4;overflow=hidden;rotatable=0;points=[[0,0.5],[1,0.5]];portConstraint=eastwest;" parent="_mon4JP7_cOclulxk8N5-122" vertex="1">
          <mxGeometry y="78" width="280" height="26" as="geometry" />
        </mxCell>
        <mxCell id="_mon4JP7_cOclulxk8N5-126" value="-Speaker: string" style="text;strokeColor=none;fillColor=none;align=left;verticalAlign=top;spacingLeft=4;spacingRight=4;overflow=hidden;rotatable=0;points=[[0,0.5],[1,0.5]];portConstraint=eastwest;" parent="_mon4JP7_cOclulxk8N5-122" vertex="1">
          <mxGeometry y="104" width="280" height="26" as="geometry" />
        </mxCell>
        <mxCell id="_mon4JP7_cOclulxk8N5-127" value="-ConferenceId: int" style="text;strokeColor=none;fillColor=none;align=left;verticalAlign=top;spacingLeft=4;spacingRight=4;overflow=hidden;rotatable=0;points=[[0,0.5],[1,0.5]];portConstraint=eastwest;" parent="_mon4JP7_cOclulxk8N5-122" vertex="1">
          <mxGeometry y="130" width="280" height="26" as="geometry" />
        </mxCell>
        <mxCell id="_mon4JP7_cOclulxk8N5-128" value="" style="line;strokeWidth=1;fillColor=none;align=left;verticalAlign=middle;spacingTop=-1;spacingLeft=3;spacingRight=3;rotatable=0;labelPosition=right;points=[];portConstraint=eastwest;" parent="_mon4JP7_cOclulxk8N5-122" vertex="1">
          <mxGeometry y="156" width="280" height="8" as="geometry" />
        </mxCell>
        <mxCell id="_mon4JP7_cOclulxk8N5-129" value="+getId(): int" style="text;strokeColor=none;fillColor=none;align=left;verticalAlign=top;spacingLeft=4;spacingRight=4;overflow=hidden;rotatable=0;points=[[0,0.5],[1,0.5]];portConstraint=eastwest;" parent="_mon4JP7_cOclulxk8N5-122" vertex="1">
          <mxGeometry y="164" width="280" height="26" as="geometry" />
        </mxCell>
        <mxCell id="_mon4JP7_cOclulxk8N5-130" value="+setId(int): void" style="text;strokeColor=none;fillColor=none;align=left;verticalAlign=top;spacingLeft=4;spacingRight=4;overflow=hidden;rotatable=0;points=[[0,0.5],[1,0.5]];portConstraint=eastwest;" parent="_mon4JP7_cOclulxk8N5-122" vertex="1">
          <mxGeometry y="190" width="280" height="26" as="geometry" />
        </mxCell>
        <mxCell id="_mon4JP7_cOclulxk8N5-131" value="+getTitle(): string" style="text;strokeColor=none;fillColor=none;align=left;verticalAlign=top;spacingLeft=4;spacingRight=4;overflow=hidden;rotatable=0;points=[[0,0.5],[1,0.5]];portConstraint=eastwest;" parent="_mon4JP7_cOclulxk8N5-122" vertex="1">
          <mxGeometry y="216" width="280" height="26" as="geometry" />
        </mxCell>
        <mxCell id="_mon4JP7_cOclulxk8N5-132" value="+setTitle(string): void" style="text;strokeColor=none;fillColor=none;align=left;verticalAlign=top;spacingLeft=4;spacingRight=4;overflow=hidden;rotatable=0;points=[[0,0.5],[1,0.5]];portConstraint=eastwest;" parent="_mon4JP7_cOclulxk8N5-122" vertex="1">
          <mxGeometry y="242" width="280" height="26" as="geometry" />
        </mxCell>
        <mxCell id="_mon4JP7_cOclulxk8N5-133" value="+getDescription(): string" style="text;strokeColor=none;fillColor=none;align=left;verticalAlign=top;spacingLeft=4;spacingRight=4;overflow=hidden;rotatable=0;points=[[0,0.5],[1,0.5]];portConstraint=eastwest;" parent="_mon4JP7_cOclulxk8N5-122" vertex="1">
          <mxGeometry y="268" width="280" height="26" as="geometry" />
        </mxCell>
        <mxCell id="_mon4JP7_cOclulxk8N5-134" value="+setDescription(string): void" style="text;strokeColor=none;fillColor=none;align=left;verticalAlign=top;spacingLeft=4;spacingRight=4;overflow=hidden;rotatable=0;points=[[0,0.5],[1,0.5]];portConstraint=eastwest;" parent="_mon4JP7_cOclulxk8N5-122" vertex="1">
          <mxGeometry y="294" width="280" height="26" as="geometry" />
        </mxCell>
        <mxCell id="_mon4JP7_cOclulxk8N5-135" value="+getSpeaker(): string" style="text;strokeColor=none;fillColor=none;align=left;verticalAlign=top;spacingLeft=4;spacingRight=4;overflow=hidden;rotatable=0;points=[[0,0.5],[1,0.5]];portConstraint=eastwest;" parent="_mon4JP7_cOclulxk8N5-122" vertex="1">
          <mxGeometry y="320" width="280" height="26" as="geometry" />
        </mxCell>
        <mxCell id="_mon4JP7_cOclulxk8N5-136" value="+setSpeaker(string): void" style="text;strokeColor=none;fillColor=none;align=left;verticalAlign=top;spacingLeft=4;spacingRight=4;overflow=hidden;rotatable=0;points=[[0,0.5],[1,0.5]];portConstraint=eastwest;" parent="_mon4JP7_cOclulxk8N5-122" vertex="1">
          <mxGeometry y="346" width="280" height="26" as="geometry" />
        </mxCell>
        <mxCell id="_mon4JP7_cOclulxk8N5-137" value="+getConferenceId(): int" style="text;strokeColor=none;fillColor=none;align=left;verticalAlign=top;spacingLeft=4;spacingRight=4;overflow=hidden;rotatable=0;points=[[0,0.5],[1,0.5]];portConstraint=eastwest;" parent="_mon4JP7_cOclulxk8N5-122" vertex="1">
          <mxGeometry y="372" width="280" height="26" as="geometry" />
        </mxCell>
        <mxCell id="_mon4JP7_cOclulxk8N5-138" value="+setConferenceId(int): void" style="text;strokeColor=none;fillColor=none;align=left;verticalAlign=top;spacingLeft=4;spacingRight=4;overflow=hidden;rotatable=0;points=[[0,0.5],[1,0.5]];portConstraint=eastwest;" parent="_mon4JP7_cOclulxk8N5-122" vertex="1">
          <mxGeometry y="398" width="280" height="26" as="geometry" />
        </mxCell>
        <mxCell id="_mon4JP7_cOclulxk8N5-139" value="+dummyPresentationData(): List&lt;Presentation&gt;" style="text;strokeColor=none;fillColor=none;align=left;verticalAlign=top;spacingLeft=4;spacingRight=4;overflow=hidden;rotatable=0;points=[[0,0.5],[1,0.5]];portConstraint=eastwest;" parent="_mon4JP7_cOclulxk8N5-122" vertex="1">
          <mxGeometry y="424" width="280" height="26" as="geometry" />
        </mxCell>
        <mxCell id="_mon4JP7_cOclulxk8N5-140" value="Subject" style="swimlane;fontStyle=1;childLayout=stackLayout;horizontal=1;startSize=26;horizontalStack=0;resizeParent=1;resizeParentMax=0;resizeLast=0;collapsible=1;marginBottom=0;" parent="1" vertex="1">
          <mxGeometry x="23.5" y="-860" width="180" height="138" as="geometry" />
        </mxCell>
        <mxCell id="_mon4JP7_cOclulxk8N5-141" value="-_observers: List&lt;IObserver&gt;" style="text;strokeColor=none;fillColor=none;align=left;verticalAlign=top;spacingLeft=4;spacingRight=4;overflow=hidden;rotatable=0;points=[[0,0.5],[1,0.5]];portConstraint=eastwest;" parent="_mon4JP7_cOclulxk8N5-140" vertex="1">
          <mxGeometry y="26" width="180" height="26" as="geometry" />
        </mxCell>
        <mxCell id="_mon4JP7_cOclulxk8N5-142" value="" style="line;strokeWidth=1;fillColor=none;align=left;verticalAlign=middle;spacingTop=-1;spacingLeft=3;spacingRight=3;rotatable=0;labelPosition=right;points=[];portConstraint=eastwest;" parent="_mon4JP7_cOclulxk8N5-140" vertex="1">
          <mxGeometry y="52" width="180" height="8" as="geometry" />
        </mxCell>
        <mxCell id="_mon4JP7_cOclulxk8N5-143" value="+Attach(IObserver): void" style="text;strokeColor=none;fillColor=none;align=left;verticalAlign=top;spacingLeft=4;spacingRight=4;overflow=hidden;rotatable=0;points=[[0,0.5],[1,0.5]];portConstraint=eastwest;" parent="_mon4JP7_cOclulxk8N5-140" vertex="1">
          <mxGeometry y="60" width="180" height="26" as="geometry" />
        </mxCell>
        <mxCell id="_mon4JP7_cOclulxk8N5-144" value="+Detach(IObserver): void" style="text;strokeColor=none;fillColor=none;align=left;verticalAlign=top;spacingLeft=4;spacingRight=4;overflow=hidden;rotatable=0;points=[[0,0.5],[1,0.5]];portConstraint=eastwest;" parent="_mon4JP7_cOclulxk8N5-140" vertex="1">
          <mxGeometry y="86" width="180" height="26" as="geometry" />
        </mxCell>
        <mxCell id="_mon4JP7_cOclulxk8N5-145" value="+Notify(): void" style="text;strokeColor=none;fillColor=none;align=left;verticalAlign=top;spacingLeft=4;spacingRight=4;overflow=hidden;rotatable=0;points=[[0,0.5],[1,0.5]];portConstraint=eastwest;" parent="_mon4JP7_cOclulxk8N5-140" vertex="1">
          <mxGeometry y="112" width="180" height="26" as="geometry" />
        </mxCell>
        <mxCell id="_mon4JP7_cOclulxk8N5-146" value="Repository" style="shape=folder;fontStyle=1;spacingTop=10;tabWidth=40;tabHeight=14;tabPosition=left;html=1;whiteSpace=wrap;verticalAlign=top;fillColor=#ffe6cc;strokeColor=#d79b00;" parent="1" vertex="1">
          <mxGeometry x="420" y="-940" width="1013.5" height="870" as="geometry" />
        </mxCell>
        <mxCell id="_mon4JP7_cOclulxk8N5-147" value="StatisticsRepository" style="swimlane;fontStyle=1;childLayout=stackLayout;horizontal=1;startSize=26;horizontalStack=0;resizeParent=1;resizeParentMax=0;resizeLast=0;collapsible=1;marginBottom=0;" parent="1" vertex="1">
          <mxGeometry x="1090" y="-874" width="290" height="138" as="geometry" />
        </mxCell>
        <mxCell id="_mon4JP7_cOclulxk8N5-148" value="-repository: Repository" style="text;strokeColor=none;fillColor=none;align=left;verticalAlign=top;spacingLeft=4;spacingRight=4;overflow=hidden;rotatable=0;points=[[0,0.5],[1,0.5]];portConstraint=eastwest;" parent="_mon4JP7_cOclulxk8N5-147" vertex="1">
          <mxGeometry y="26" width="290" height="26" as="geometry" />
        </mxCell>
        <mxCell id="_mon4JP7_cOclulxk8N5-149" value="" style="line;strokeWidth=1;fillColor=none;align=left;verticalAlign=middle;spacingTop=-1;spacingLeft=3;spacingRight=3;rotatable=0;labelPosition=right;points=[];portConstraint=eastwest;" parent="_mon4JP7_cOclulxk8N5-147" vertex="1">
          <mxGeometry y="52" width="290" height="8" as="geometry" />
        </mxCell>
        <mxCell id="_mon4JP7_cOclulxk8N5-150" value="+GetParticipantsCountByConference(int): int" style="text;strokeColor=none;fillColor=none;align=left;verticalAlign=top;spacingLeft=4;spacingRight=4;overflow=hidden;rotatable=0;points=[[0,0.5],[1,0.5]];portConstraint=eastwest;" parent="_mon4JP7_cOclulxk8N5-147" vertex="1">
          <mxGeometry y="60" width="290" height="26" as="geometry" />
        </mxCell>
        <mxCell id="_mon4JP7_cOclulxk8N5-151" value="+GetPresentationsCountBySection(Section): int" style="text;strokeColor=none;fillColor=none;align=left;verticalAlign=top;spacingLeft=4;spacingRight=4;overflow=hidden;rotatable=0;points=[[0,0.5],[1,0.5]];portConstraint=eastwest;" parent="_mon4JP7_cOclulxk8N5-147" vertex="1">
          <mxGeometry y="86" width="290" height="26" as="geometry" />
        </mxCell>
        <mxCell id="_mon4JP7_cOclulxk8N5-152" value="+GetAverageParticipantsPerConference(): double" style="text;strokeColor=none;fillColor=none;align=left;verticalAlign=top;spacingLeft=4;spacingRight=4;overflow=hidden;rotatable=0;points=[[0,0.5],[1,0.5]];portConstraint=eastwest;" parent="_mon4JP7_cOclulxk8N5-147" vertex="1">
          <mxGeometry y="112" width="290" height="26" as="geometry" />
        </mxCell>
        <mxCell id="_mon4JP7_cOclulxk8N5-153" value="UserRepository" style="swimlane;fontStyle=1;childLayout=stackLayout;horizontal=1;startSize=26;horizontalStack=0;resizeParent=1;resizeParentMax=0;resizeLast=0;collapsible=1;marginBottom=0;" parent="1" vertex="1">
          <mxGeometry x="550" y="-860" width="310" height="242" as="geometry" />
        </mxCell>
        <mxCell id="_mon4JP7_cOclulxk8N5-154" value="-repository: Repository" style="text;strokeColor=none;fillColor=none;align=left;verticalAlign=top;spacingLeft=4;spacingRight=4;overflow=hidden;rotatable=0;points=[[0,0.5],[1,0.5]];portConstraint=eastwest;" parent="_mon4JP7_cOclulxk8N5-153" vertex="1">
          <mxGeometry y="26" width="310" height="26" as="geometry" />
        </mxCell>
        <mxCell id="_mon4JP7_cOclulxk8N5-155" value="" style="line;strokeWidth=1;fillColor=none;align=left;verticalAlign=middle;spacingTop=-1;spacingLeft=3;spacingRight=3;rotatable=0;labelPosition=right;points=[];portConstraint=eastwest;" parent="_mon4JP7_cOclulxk8N5-153" vertex="1">
          <mxGeometry y="52" width="310" height="8" as="geometry" />
        </mxCell>
        <mxCell id="_mon4JP7_cOclulxk8N5-156" value="+CreateUser(User): bool" style="text;strokeColor=none;fillColor=none;align=left;verticalAlign=top;spacingLeft=4;spacingRight=4;overflow=hidden;rotatable=0;points=[[0,0.5],[1,0.5]];portConstraint=eastwest;" parent="_mon4JP7_cOclulxk8N5-153" vertex="1">
          <mxGeometry y="60" width="310" height="26" as="geometry" />
        </mxCell>
        <mxCell id="_mon4JP7_cOclulxk8N5-157" value="+ReadUserById(int): User" style="text;strokeColor=none;fillColor=none;align=left;verticalAlign=top;spacingLeft=4;spacingRight=4;overflow=hidden;rotatable=0;points=[[0,0.5],[1,0.5]];portConstraint=eastwest;" parent="_mon4JP7_cOclulxk8N5-153" vertex="1">
          <mxGeometry y="86" width="310" height="26" as="geometry" />
        </mxCell>
        <mxCell id="_mon4JP7_cOclulxk8N5-158" value="+ReadAllUsers(): List&lt;User&gt;" style="text;strokeColor=none;fillColor=none;align=left;verticalAlign=top;spacingLeft=4;spacingRight=4;overflow=hidden;rotatable=0;points=[[0,0.5],[1,0.5]];portConstraint=eastwest;" parent="_mon4JP7_cOclulxk8N5-153" vertex="1">
          <mxGeometry y="112" width="310" height="26" as="geometry" />
        </mxCell>
        <mxCell id="_mon4JP7_cOclulxk8N5-159" value="+UpdateUser(User): bool" style="text;strokeColor=none;fillColor=none;align=left;verticalAlign=top;spacingLeft=4;spacingRight=4;overflow=hidden;rotatable=0;points=[[0,0.5],[1,0.5]];portConstraint=eastwest;" parent="_mon4JP7_cOclulxk8N5-153" vertex="1">
          <mxGeometry y="138" width="310" height="26" as="geometry" />
        </mxCell>
        <mxCell id="_mon4JP7_cOclulxk8N5-160" value="+DeleteUser(int): bool" style="text;strokeColor=none;fillColor=none;align=left;verticalAlign=top;spacingLeft=4;spacingRight=4;overflow=hidden;rotatable=0;points=[[0,0.5],[1,0.5]];portConstraint=eastwest;" parent="_mon4JP7_cOclulxk8N5-153" vertex="1">
          <mxGeometry y="164" width="310" height="26" as="geometry" />
        </mxCell>
        <mxCell id="_mon4JP7_cOclulxk8N5-161" value="+ReadUsersByUserType(UserType): List&lt;User&gt;" style="text;strokeColor=none;fillColor=none;align=left;verticalAlign=top;spacingLeft=4;spacingRight=4;overflow=hidden;rotatable=0;points=[[0,0.5],[1,0.5]];portConstraint=eastwest;" parent="_mon4JP7_cOclulxk8N5-153" vertex="1">
          <mxGeometry y="190" width="310" height="26" as="geometry" />
        </mxCell>
        <mxCell id="_mon4JP7_cOclulxk8N5-162" value="+ReadUserByEmailAndPassword(string, string): User" style="text;strokeColor=none;fillColor=none;align=left;verticalAlign=top;spacingLeft=4;spacingRight=4;overflow=hidden;rotatable=0;points=[[0,0.5],[1,0.5]];portConstraint=eastwest;" parent="_mon4JP7_cOclulxk8N5-153" vertex="1">
          <mxGeometry y="216" width="310" height="26" as="geometry" />
        </mxCell>
        <mxCell id="_mon4JP7_cOclulxk8N5-163" value="Repository" style="swimlane;fontStyle=1;childLayout=stackLayout;horizontal=1;startSize=26;horizontalStack=0;resizeParent=1;resizeParentMax=0;resizeLast=0;collapsible=1;marginBottom=0;" parent="1" vertex="1">
          <mxGeometry x="1170" y="-716" width="210" height="112" as="geometry" />
        </mxCell>
        <mxCell id="_mon4JP7_cOclulxk8N5-164" value="-connectionString: string" style="text;strokeColor=none;fillColor=none;align=left;verticalAlign=top;spacingLeft=4;spacingRight=4;overflow=hidden;rotatable=0;points=[[0,0.5],[1,0.5]];portConstraint=eastwest;" parent="_mon4JP7_cOclulxk8N5-163" vertex="1">
          <mxGeometry y="26" width="210" height="26" as="geometry" />
        </mxCell>
        <mxCell id="_mon4JP7_cOclulxk8N5-165" value="" style="line;strokeWidth=1;fillColor=none;align=left;verticalAlign=middle;spacingTop=-1;spacingLeft=3;spacingRight=3;rotatable=0;labelPosition=right;points=[];portConstraint=eastwest;" parent="_mon4JP7_cOclulxk8N5-163" vertex="1">
          <mxGeometry y="52" width="210" height="8" as="geometry" />
        </mxCell>
        <mxCell id="_mon4JP7_cOclulxk8N5-166" value="+ExecuteNonQuery(string): bool" style="text;strokeColor=none;fillColor=none;align=left;verticalAlign=top;spacingLeft=4;spacingRight=4;overflow=hidden;rotatable=0;points=[[0,0.5],[1,0.5]];portConstraint=eastwest;" parent="_mon4JP7_cOclulxk8N5-163" vertex="1">
          <mxGeometry y="60" width="210" height="26" as="geometry" />
        </mxCell>
        <mxCell id="_mon4JP7_cOclulxk8N5-167" value="+ExecuteQuery(string): DataTable" style="text;strokeColor=none;fillColor=none;align=left;verticalAlign=top;spacingLeft=4;spacingRight=4;overflow=hidden;rotatable=0;points=[[0,0.5],[1,0.5]];portConstraint=eastwest;" parent="_mon4JP7_cOclulxk8N5-163" vertex="1">
          <mxGeometry y="86" width="210" height="26" as="geometry" />
        </mxCell>
        <mxCell id="_mon4JP7_cOclulxk8N5-168" value="PresentationRepository" style="swimlane;fontStyle=1;childLayout=stackLayout;horizontal=1;startSize=26;horizontalStack=0;resizeParent=1;resizeParentMax=0;resizeLast=0;collapsible=1;marginBottom=0;" parent="1" vertex="1">
          <mxGeometry x="1000" y="-600" width="380" height="216" as="geometry" />
        </mxCell>
        <mxCell id="_mon4JP7_cOclulxk8N5-169" value="-repository: Repository" style="text;strokeColor=none;fillColor=none;align=left;verticalAlign=top;spacingLeft=4;spacingRight=4;overflow=hidden;rotatable=0;points=[[0,0.5],[1,0.5]];portConstraint=eastwest;" parent="_mon4JP7_cOclulxk8N5-168" vertex="1">
          <mxGeometry y="26" width="380" height="26" as="geometry" />
        </mxCell>
        <mxCell id="_mon4JP7_cOclulxk8N5-170" value="" style="line;strokeWidth=1;fillColor=none;align=left;verticalAlign=middle;spacingTop=-1;spacingLeft=3;spacingRight=3;rotatable=0;labelPosition=right;points=[];portConstraint=eastwest;" parent="_mon4JP7_cOclulxk8N5-168" vertex="1">
          <mxGeometry y="52" width="380" height="8" as="geometry" />
        </mxCell>
        <mxCell id="_mon4JP7_cOclulxk8N5-171" value="+CreatePresentation(Presentation): bool" style="text;strokeColor=none;fillColor=none;align=left;verticalAlign=top;spacingLeft=4;spacingRight=4;overflow=hidden;rotatable=0;points=[[0,0.5],[1,0.5]];portConstraint=eastwest;" parent="_mon4JP7_cOclulxk8N5-168" vertex="1">
          <mxGeometry y="60" width="380" height="26" as="geometry" />
        </mxCell>
        <mxCell id="_mon4JP7_cOclulxk8N5-172" value="+ReadPresentationById(int): Presentation" style="text;strokeColor=none;fillColor=none;align=left;verticalAlign=top;spacingLeft=4;spacingRight=4;overflow=hidden;rotatable=0;points=[[0,0.5],[1,0.5]];portConstraint=eastwest;" parent="_mon4JP7_cOclulxk8N5-168" vertex="1">
          <mxGeometry y="86" width="380" height="26" as="geometry" />
        </mxCell>
        <mxCell id="_mon4JP7_cOclulxk8N5-173" value="+ReadAllPresentations(): List&lt;Presentation&gt;" style="text;strokeColor=none;fillColor=none;align=left;verticalAlign=top;spacingLeft=4;spacingRight=4;overflow=hidden;rotatable=0;points=[[0,0.5],[1,0.5]];portConstraint=eastwest;" parent="_mon4JP7_cOclulxk8N5-168" vertex="1">
          <mxGeometry y="112" width="380" height="26" as="geometry" />
        </mxCell>
        <mxCell id="_mon4JP7_cOclulxk8N5-174" value="+UpdatePresentation(Presentation): bool" style="text;strokeColor=none;fillColor=none;align=left;verticalAlign=top;spacingLeft=4;spacingRight=4;overflow=hidden;rotatable=0;points=[[0,0.5],[1,0.5]];portConstraint=eastwest;" parent="_mon4JP7_cOclulxk8N5-168" vertex="1">
          <mxGeometry y="138" width="380" height="26" as="geometry" />
        </mxCell>
        <mxCell id="_mon4JP7_cOclulxk8N5-175" value="+DeletePresentation(int): bool" style="text;strokeColor=none;fillColor=none;align=left;verticalAlign=top;spacingLeft=4;spacingRight=4;overflow=hidden;rotatable=0;points=[[0,0.5],[1,0.5]];portConstraint=eastwest;" parent="_mon4JP7_cOclulxk8N5-168" vertex="1">
          <mxGeometry y="164" width="380" height="26" as="geometry" />
        </mxCell>
        <mxCell id="_mon4JP7_cOclulxk8N5-176" value="+ReadPresentationsBySection(Section): List&lt;Presentation&gt;" style="text;strokeColor=none;fillColor=none;align=left;verticalAlign=top;spacingLeft=4;spacingRight=4;overflow=hidden;rotatable=0;points=[[0,0.5],[1,0.5]];portConstraint=eastwest;" parent="_mon4JP7_cOclulxk8N5-168" vertex="1">
          <mxGeometry y="190" width="380" height="26" as="geometry" />
        </mxCell>
        <mxCell id="_mon4JP7_cOclulxk8N5-177" value="User" style="swimlane;fontStyle=1;childLayout=stackLayout;horizontal=1;startSize=26;horizontalStack=0;resizeParent=1;resizeParentMax=0;resizeLast=0;collapsible=1;marginBottom=0;" parent="1" vertex="1">
          <mxGeometry x="203.5" y="-690" width="210" height="606" as="geometry" />
        </mxCell>
        <mxCell id="_mon4JP7_cOclulxk8N5-178" value="-id: int" style="text;strokeColor=none;fillColor=none;align=left;verticalAlign=top;spacingLeft=4;spacingRight=4;overflow=hidden;rotatable=0;points=[[0,0.5],[1,0.5]];portConstraint=eastwest;" parent="_mon4JP7_cOclulxk8N5-177" vertex="1">
          <mxGeometry y="26" width="210" height="26" as="geometry" />
        </mxCell>
        <mxCell id="_mon4JP7_cOclulxk8N5-179" value="-name: string" style="text;strokeColor=none;fillColor=none;align=left;verticalAlign=top;spacingLeft=4;spacingRight=4;overflow=hidden;rotatable=0;points=[[0,0.5],[1,0.5]];portConstraint=eastwest;" parent="_mon4JP7_cOclulxk8N5-177" vertex="1">
          <mxGeometry y="52" width="210" height="26" as="geometry" />
        </mxCell>
        <mxCell id="_mon4JP7_cOclulxk8N5-180" value="-email: string" style="text;strokeColor=none;fillColor=none;align=left;verticalAlign=top;spacingLeft=4;spacingRight=4;overflow=hidden;rotatable=0;points=[[0,0.5],[1,0.5]];portConstraint=eastwest;" parent="_mon4JP7_cOclulxk8N5-177" vertex="1">
          <mxGeometry y="78" width="210" height="26" as="geometry" />
        </mxCell>
        <mxCell id="_mon4JP7_cOclulxk8N5-181" value="-password: string" style="text;strokeColor=none;fillColor=none;align=left;verticalAlign=top;spacingLeft=4;spacingRight=4;overflow=hidden;rotatable=0;points=[[0,0.5],[1,0.5]];portConstraint=eastwest;" parent="_mon4JP7_cOclulxk8N5-177" vertex="1">
          <mxGeometry y="104" width="210" height="26" as="geometry" />
        </mxCell>
        <mxCell id="_mon4JP7_cOclulxk8N5-182" value="-userType: UserType" style="text;strokeColor=none;fillColor=none;align=left;verticalAlign=top;spacingLeft=4;spacingRight=4;overflow=hidden;rotatable=0;points=[[0,0.5],[1,0.5]];portConstraint=eastwest;" parent="_mon4JP7_cOclulxk8N5-177" vertex="1">
          <mxGeometry y="130" width="210" height="26" as="geometry" />
        </mxCell>
        <mxCell id="_mon4JP7_cOclulxk8N5-183" value="-phone: string" style="text;strokeColor=none;fillColor=none;align=left;verticalAlign=top;spacingLeft=4;spacingRight=4;overflow=hidden;rotatable=0;points=[[0,0.5],[1,0.5]];portConstraint=eastwest;" parent="_mon4JP7_cOclulxk8N5-177" vertex="1">
          <mxGeometry y="156" width="210" height="26" as="geometry" />
        </mxCell>
        <mxCell id="_mon4JP7_cOclulxk8N5-184" value="" style="line;strokeWidth=1;fillColor=none;align=left;verticalAlign=middle;spacingTop=-1;spacingLeft=3;spacingRight=3;rotatable=0;labelPosition=right;points=[];portConstraint=eastwest;" parent="_mon4JP7_cOclulxk8N5-177" vertex="1">
          <mxGeometry y="182" width="210" height="8" as="geometry" />
        </mxCell>
        <mxCell id="_mon4JP7_cOclulxk8N5-185" value="+getId(): int" style="text;strokeColor=none;fillColor=none;align=left;verticalAlign=top;spacingLeft=4;spacingRight=4;overflow=hidden;rotatable=0;points=[[0,0.5],[1,0.5]];portConstraint=eastwest;" parent="_mon4JP7_cOclulxk8N5-177" vertex="1">
          <mxGeometry y="190" width="210" height="26" as="geometry" />
        </mxCell>
        <mxCell id="_mon4JP7_cOclulxk8N5-186" value="+setId(int): void" style="text;strokeColor=none;fillColor=none;align=left;verticalAlign=top;spacingLeft=4;spacingRight=4;overflow=hidden;rotatable=0;points=[[0,0.5],[1,0.5]];portConstraint=eastwest;" parent="_mon4JP7_cOclulxk8N5-177" vertex="1">
          <mxGeometry y="216" width="210" height="26" as="geometry" />
        </mxCell>
        <mxCell id="_mon4JP7_cOclulxk8N5-187" value="+getName(): string" style="text;strokeColor=none;fillColor=none;align=left;verticalAlign=top;spacingLeft=4;spacingRight=4;overflow=hidden;rotatable=0;points=[[0,0.5],[1,0.5]];portConstraint=eastwest;" parent="_mon4JP7_cOclulxk8N5-177" vertex="1">
          <mxGeometry y="242" width="210" height="26" as="geometry" />
        </mxCell>
        <mxCell id="_mon4JP7_cOclulxk8N5-188" value="+setName(string): void" style="text;strokeColor=none;fillColor=none;align=left;verticalAlign=top;spacingLeft=4;spacingRight=4;overflow=hidden;rotatable=0;points=[[0,0.5],[1,0.5]];portConstraint=eastwest;" parent="_mon4JP7_cOclulxk8N5-177" vertex="1">
          <mxGeometry y="268" width="210" height="26" as="geometry" />
        </mxCell>
        <mxCell id="_mon4JP7_cOclulxk8N5-189" value="+getEmail(): string" style="text;strokeColor=none;fillColor=none;align=left;verticalAlign=top;spacingLeft=4;spacingRight=4;overflow=hidden;rotatable=0;points=[[0,0.5],[1,0.5]];portConstraint=eastwest;" parent="_mon4JP7_cOclulxk8N5-177" vertex="1">
          <mxGeometry y="294" width="210" height="26" as="geometry" />
        </mxCell>
        <mxCell id="_mon4JP7_cOclulxk8N5-190" value="+setEmail(string): void" style="text;strokeColor=none;fillColor=none;align=left;verticalAlign=top;spacingLeft=4;spacingRight=4;overflow=hidden;rotatable=0;points=[[0,0.5],[1,0.5]];portConstraint=eastwest;" parent="_mon4JP7_cOclulxk8N5-177" vertex="1">
          <mxGeometry y="320" width="210" height="26" as="geometry" />
        </mxCell>
        <mxCell id="_mon4JP7_cOclulxk8N5-191" value="+getPassword(): string" style="text;strokeColor=none;fillColor=none;align=left;verticalAlign=top;spacingLeft=4;spacingRight=4;overflow=hidden;rotatable=0;points=[[0,0.5],[1,0.5]];portConstraint=eastwest;" parent="_mon4JP7_cOclulxk8N5-177" vertex="1">
          <mxGeometry y="346" width="210" height="26" as="geometry" />
        </mxCell>
        <mxCell id="_mon4JP7_cOclulxk8N5-192" value="+setPassword(string): void" style="text;strokeColor=none;fillColor=none;align=left;verticalAlign=top;spacingLeft=4;spacingRight=4;overflow=hidden;rotatable=0;points=[[0,0.5],[1,0.5]];portConstraint=eastwest;" parent="_mon4JP7_cOclulxk8N5-177" vertex="1">
          <mxGeometry y="372" width="210" height="26" as="geometry" />
        </mxCell>
        <mxCell id="_mon4JP7_cOclulxk8N5-193" value="+getUserType(): UserType" style="text;strokeColor=none;fillColor=none;align=left;verticalAlign=top;spacingLeft=4;spacingRight=4;overflow=hidden;rotatable=0;points=[[0,0.5],[1,0.5]];portConstraint=eastwest;" parent="_mon4JP7_cOclulxk8N5-177" vertex="1">
          <mxGeometry y="398" width="210" height="26" as="geometry" />
        </mxCell>
        <mxCell id="_mon4JP7_cOclulxk8N5-194" value="+setUserType(UserType): void" style="text;strokeColor=none;fillColor=none;align=left;verticalAlign=top;spacingLeft=4;spacingRight=4;overflow=hidden;rotatable=0;points=[[0,0.5],[1,0.5]];portConstraint=eastwest;" parent="_mon4JP7_cOclulxk8N5-177" vertex="1">
          <mxGeometry y="424" width="210" height="26" as="geometry" />
        </mxCell>
        <mxCell id="_mon4JP7_cOclulxk8N5-195" value="+getPhone(): string" style="text;strokeColor=none;fillColor=none;align=left;verticalAlign=top;spacingLeft=4;spacingRight=4;overflow=hidden;rotatable=0;points=[[0,0.5],[1,0.5]];portConstraint=eastwest;" parent="_mon4JP7_cOclulxk8N5-177" vertex="1">
          <mxGeometry y="450" width="210" height="26" as="geometry" />
        </mxCell>
        <mxCell id="_mon4JP7_cOclulxk8N5-196" value="+setPhone(string): void" style="text;strokeColor=none;fillColor=none;align=left;verticalAlign=top;spacingLeft=4;spacingRight=4;overflow=hidden;rotatable=0;points=[[0,0.5],[1,0.5]];portConstraint=eastwest;" parent="_mon4JP7_cOclulxk8N5-177" vertex="1">
          <mxGeometry y="476" width="210" height="26" as="geometry" />
        </mxCell>
        <mxCell id="_mon4JP7_cOclulxk8N5-197" value="+HashPassword(string): string" style="text;strokeColor=none;fillColor=none;align=left;verticalAlign=top;spacingLeft=4;spacingRight=4;overflow=hidden;rotatable=0;points=[[0,0.5],[1,0.5]];portConstraint=eastwest;" parent="_mon4JP7_cOclulxk8N5-177" vertex="1">
          <mxGeometry y="502" width="210" height="26" as="geometry" />
        </mxCell>
        <mxCell id="_mon4JP7_cOclulxk8N5-198" value="+ToString(): string" style="text;strokeColor=none;fillColor=none;align=left;verticalAlign=top;spacingLeft=4;spacingRight=4;overflow=hidden;rotatable=0;points=[[0,0.5],[1,0.5]];portConstraint=eastwest;" parent="_mon4JP7_cOclulxk8N5-177" vertex="1">
          <mxGeometry y="528" width="210" height="26" as="geometry" />
        </mxCell>
        <mxCell id="_mon4JP7_cOclulxk8N5-199" value="+OnPropertyChanged(string): void" style="text;strokeColor=none;fillColor=none;align=left;verticalAlign=top;spacingLeft=4;spacingRight=4;overflow=hidden;rotatable=0;points=[[0,0.5],[1,0.5]];portConstraint=eastwest;" parent="_mon4JP7_cOclulxk8N5-177" vertex="1">
          <mxGeometry y="554" width="210" height="26" as="geometry" />
        </mxCell>
        <mxCell id="_mon4JP7_cOclulxk8N5-200" value="+dummyUserData(): List&lt;User&gt;" style="text;strokeColor=none;fillColor=none;align=left;verticalAlign=top;spacingLeft=4;spacingRight=4;overflow=hidden;rotatable=0;points=[[0,0.5],[1,0.5]];portConstraint=eastwest;" parent="_mon4JP7_cOclulxk8N5-177" vertex="1">
          <mxGeometry y="580" width="210" height="26" as="geometry" />
        </mxCell>
        <mxCell id="_mon4JP7_cOclulxk8N5-201" value="ParticipantRepository" style="swimlane;fontStyle=1;childLayout=stackLayout;horizontal=1;startSize=26;horizontalStack=0;resizeParent=1;resizeParentMax=0;resizeLast=0;collapsible=1;marginBottom=0;" parent="1" vertex="1">
          <mxGeometry x="460" y="-405" width="400" height="294" as="geometry" />
        </mxCell>
        <mxCell id="_mon4JP7_cOclulxk8N5-202" value="-repository: Repository" style="text;strokeColor=none;fillColor=none;align=left;verticalAlign=top;spacingLeft=4;spacingRight=4;overflow=hidden;rotatable=0;points=[[0,0.5],[1,0.5]];portConstraint=eastwest;" parent="_mon4JP7_cOclulxk8N5-201" vertex="1">
          <mxGeometry y="26" width="400" height="26" as="geometry" />
        </mxCell>
        <mxCell id="_mon4JP7_cOclulxk8N5-203" value="-presentationRepository: PresentationRepository" style="text;strokeColor=none;fillColor=none;align=left;verticalAlign=top;spacingLeft=4;spacingRight=4;overflow=hidden;rotatable=0;points=[[0,0.5],[1,0.5]];portConstraint=eastwest;" parent="_mon4JP7_cOclulxk8N5-201" vertex="1">
          <mxGeometry y="52" width="400" height="26" as="geometry" />
        </mxCell>
        <mxCell id="_mon4JP7_cOclulxk8N5-204" value="-participant_PrezentareRepository: Participant_PrezentareRepository" style="text;strokeColor=none;fillColor=none;align=left;verticalAlign=top;spacingLeft=4;spacingRight=4;overflow=hidden;rotatable=0;points=[[0,0.5],[1,0.5]];portConstraint=eastwest;" parent="_mon4JP7_cOclulxk8N5-201" vertex="1">
          <mxGeometry y="78" width="400" height="26" as="geometry" />
        </mxCell>
        <mxCell id="_mon4JP7_cOclulxk8N5-205" value="" style="line;strokeWidth=1;fillColor=none;align=left;verticalAlign=middle;spacingTop=-1;spacingLeft=3;spacingRight=3;rotatable=0;labelPosition=right;points=[];portConstraint=eastwest;" parent="_mon4JP7_cOclulxk8N5-201" vertex="1">
          <mxGeometry y="104" width="400" height="8" as="geometry" />
        </mxCell>
        <mxCell id="_mon4JP7_cOclulxk8N5-206" value="+CreateParticipant(Participant): bool" style="text;strokeColor=none;fillColor=none;align=left;verticalAlign=top;spacingLeft=4;spacingRight=4;overflow=hidden;rotatable=0;points=[[0,0.5],[1,0.5]];portConstraint=eastwest;" parent="_mon4JP7_cOclulxk8N5-201" vertex="1">
          <mxGeometry y="112" width="400" height="26" as="geometry" />
        </mxCell>
        <mxCell id="_mon4JP7_cOclulxk8N5-207" value="+ReadParticipantById(int): Participant" style="text;strokeColor=none;fillColor=none;align=left;verticalAlign=top;spacingLeft=4;spacingRight=4;overflow=hidden;rotatable=0;points=[[0,0.5],[1,0.5]];portConstraint=eastwest;" parent="_mon4JP7_cOclulxk8N5-201" vertex="1">
          <mxGeometry y="138" width="400" height="26" as="geometry" />
        </mxCell>
        <mxCell id="_mon4JP7_cOclulxk8N5-208" value="+ReadAllParticipants(): List&lt;Participant&gt;" style="text;strokeColor=none;fillColor=none;align=left;verticalAlign=top;spacingLeft=4;spacingRight=4;overflow=hidden;rotatable=0;points=[[0,0.5],[1,0.5]];portConstraint=eastwest;" parent="_mon4JP7_cOclulxk8N5-201" vertex="1">
          <mxGeometry y="164" width="400" height="26" as="geometry" />
        </mxCell>
        <mxCell id="_mon4JP7_cOclulxk8N5-209" value="+UpdateParticipant(Participant): bool" style="text;strokeColor=none;fillColor=none;align=left;verticalAlign=top;spacingLeft=4;spacingRight=4;overflow=hidden;rotatable=0;points=[[0,0.5],[1,0.5]];portConstraint=eastwest;" parent="_mon4JP7_cOclulxk8N5-201" vertex="1">
          <mxGeometry y="190" width="400" height="26" as="geometry" />
        </mxCell>
        <mxCell id="_mon4JP7_cOclulxk8N5-210" value="+DeleteParticipant(int): bool" style="text;strokeColor=none;fillColor=none;align=left;verticalAlign=top;spacingLeft=4;spacingRight=4;overflow=hidden;rotatable=0;points=[[0,0.5],[1,0.5]];portConstraint=eastwest;" parent="_mon4JP7_cOclulxk8N5-201" vertex="1">
          <mxGeometry y="216" width="400" height="26" as="geometry" />
        </mxCell>
        <mxCell id="_mon4JP7_cOclulxk8N5-211" value="+UpsertParticipant(Participant): bool" style="text;strokeColor=none;fillColor=none;align=left;verticalAlign=top;spacingLeft=4;spacingRight=4;overflow=hidden;rotatable=0;points=[[0,0.5],[1,0.5]];portConstraint=eastwest;" parent="_mon4JP7_cOclulxk8N5-201" vertex="1">
          <mxGeometry y="242" width="400" height="26" as="geometry" />
        </mxCell>
        <mxCell id="_mon4JP7_cOclulxk8N5-212" value="+GetParticipantsBySection(Section): List&lt;Participant&gt;" style="text;strokeColor=none;fillColor=none;align=left;verticalAlign=top;spacingLeft=4;spacingRight=4;overflow=hidden;rotatable=0;points=[[0,0.5],[1,0.5]];portConstraint=eastwest;" parent="_mon4JP7_cOclulxk8N5-201" vertex="1">
          <mxGeometry y="268" width="400" height="26" as="geometry" />
        </mxCell>
        <mxCell id="_mon4JP7_cOclulxk8N5-213" value="Participant_PrezentareRepository" style="swimlane;fontStyle=1;childLayout=stackLayout;horizontal=1;startSize=26;horizontalStack=0;resizeParent=1;resizeParentMax=0;resizeLast=0;collapsible=1;marginBottom=0;" parent="1" vertex="1">
          <mxGeometry x="1000" y="-340" width="380" height="164" as="geometry" />
        </mxCell>
        <mxCell id="_mon4JP7_cOclulxk8N5-214" value="-repository: Repository" style="text;strokeColor=none;fillColor=none;align=left;verticalAlign=top;spacingLeft=4;spacingRight=4;overflow=hidden;rotatable=0;points=[[0,0.5],[1,0.5]];portConstraint=eastwest;" parent="_mon4JP7_cOclulxk8N5-213" vertex="1">
          <mxGeometry y="26" width="380" height="26" as="geometry" />
        </mxCell>
        <mxCell id="_mon4JP7_cOclulxk8N5-215" value="" style="line;strokeWidth=1;fillColor=none;align=left;verticalAlign=middle;spacingTop=-1;spacingLeft=3;spacingRight=3;rotatable=0;labelPosition=right;points=[];portConstraint=eastwest;" parent="_mon4JP7_cOclulxk8N5-213" vertex="1">
          <mxGeometry y="52" width="380" height="8" as="geometry" />
        </mxCell>
        <mxCell id="_mon4JP7_cOclulxk8N5-216" value="+CreateParticipant_Prezentare(int, int): bool" style="text;strokeColor=none;fillColor=none;align=left;verticalAlign=top;spacingLeft=4;spacingRight=4;overflow=hidden;rotatable=0;points=[[0,0.5],[1,0.5]];portConstraint=eastwest;" parent="_mon4JP7_cOclulxk8N5-213" vertex="1">
          <mxGeometry y="60" width="380" height="26" as="geometry" />
        </mxCell>
        <mxCell id="_mon4JP7_cOclulxk8N5-217" value="+ReadParticipantsByPresentation(Presentation): List&lt;Participant&gt;" style="text;strokeColor=none;fillColor=none;align=left;verticalAlign=top;spacingLeft=4;spacingRight=4;overflow=hidden;rotatable=0;points=[[0,0.5],[1,0.5]];portConstraint=eastwest;" parent="_mon4JP7_cOclulxk8N5-213" vertex="1">
          <mxGeometry y="86" width="380" height="26" as="geometry" />
        </mxCell>
        <mxCell id="_mon4JP7_cOclulxk8N5-218" value="+ReadPresentationsByParticipant(Participant): List&lt;Presentation&gt;" style="text;strokeColor=none;fillColor=none;align=left;verticalAlign=top;spacingLeft=4;spacingRight=4;overflow=hidden;rotatable=0;points=[[0,0.5],[1,0.5]];portConstraint=eastwest;" parent="_mon4JP7_cOclulxk8N5-213" vertex="1">
          <mxGeometry y="112" width="380" height="26" as="geometry" />
        </mxCell>
        <mxCell id="_mon4JP7_cOclulxk8N5-219" value="+DeleteParticipant_Prezentare(int, int): bool" style="text;strokeColor=none;fillColor=none;align=left;verticalAlign=top;spacingLeft=4;spacingRight=4;overflow=hidden;rotatable=0;points=[[0,0.5],[1,0.5]];portConstraint=eastwest;" parent="_mon4JP7_cOclulxk8N5-213" vertex="1">
          <mxGeometry y="138" width="380" height="26" as="geometry" />
        </mxCell>
        <mxCell id="_mon4JP7_cOclulxk8N5-220" value="ConferenceRepository" style="swimlane;fontStyle=1;childLayout=stackLayout;horizontal=1;startSize=26;horizontalStack=0;resizeParent=1;resizeParentMax=0;resizeLast=0;collapsible=1;marginBottom=0;" parent="1" vertex="1">
          <mxGeometry x="610" y="-600" width="250" height="190" as="geometry" />
        </mxCell>
        <mxCell id="_mon4JP7_cOclulxk8N5-221" value="-repository: Repository" style="text;strokeColor=none;fillColor=none;align=left;verticalAlign=top;spacingLeft=4;spacingRight=4;overflow=hidden;rotatable=0;points=[[0,0.5],[1,0.5]];portConstraint=eastwest;" parent="_mon4JP7_cOclulxk8N5-220" vertex="1">
          <mxGeometry y="26" width="250" height="26" as="geometry" />
        </mxCell>
        <mxCell id="_mon4JP7_cOclulxk8N5-222" value="" style="line;strokeWidth=1;fillColor=none;align=left;verticalAlign=middle;spacingTop=-1;spacingLeft=3;spacingRight=3;rotatable=0;labelPosition=right;points=[];portConstraint=eastwest;" parent="_mon4JP7_cOclulxk8N5-220" vertex="1">
          <mxGeometry y="52" width="250" height="8" as="geometry" />
        </mxCell>
        <mxCell id="_mon4JP7_cOclulxk8N5-223" value="+CreateConference(Conference): bool" style="text;strokeColor=none;fillColor=none;align=left;verticalAlign=top;spacingLeft=4;spacingRight=4;overflow=hidden;rotatable=0;points=[[0,0.5],[1,0.5]];portConstraint=eastwest;" parent="_mon4JP7_cOclulxk8N5-220" vertex="1">
          <mxGeometry y="60" width="250" height="26" as="geometry" />
        </mxCell>
        <mxCell id="_mon4JP7_cOclulxk8N5-224" value="+ReadConferenceById(int): Conference" style="text;strokeColor=none;fillColor=none;align=left;verticalAlign=top;spacingLeft=4;spacingRight=4;overflow=hidden;rotatable=0;points=[[0,0.5],[1,0.5]];portConstraint=eastwest;" parent="_mon4JP7_cOclulxk8N5-220" vertex="1">
          <mxGeometry y="86" width="250" height="26" as="geometry" />
        </mxCell>
        <mxCell id="_mon4JP7_cOclulxk8N5-225" value="+ReadAllConferences(): List&lt;Conference&gt;" style="text;strokeColor=none;fillColor=none;align=left;verticalAlign=top;spacingLeft=4;spacingRight=4;overflow=hidden;rotatable=0;points=[[0,0.5],[1,0.5]];portConstraint=eastwest;" parent="_mon4JP7_cOclulxk8N5-220" vertex="1">
          <mxGeometry y="112" width="250" height="26" as="geometry" />
        </mxCell>
        <mxCell id="_mon4JP7_cOclulxk8N5-226" value="+UpdateConference(Conference): bool" style="text;strokeColor=none;fillColor=none;align=left;verticalAlign=top;spacingLeft=4;spacingRight=4;overflow=hidden;rotatable=0;points=[[0,0.5],[1,0.5]];portConstraint=eastwest;" parent="_mon4JP7_cOclulxk8N5-220" vertex="1">
          <mxGeometry y="138" width="250" height="26" as="geometry" />
        </mxCell>
        <mxCell id="_mon4JP7_cOclulxk8N5-227" value="+DeleteConference(int): bool" style="text;strokeColor=none;fillColor=none;align=left;verticalAlign=top;spacingLeft=4;spacingRight=4;overflow=hidden;rotatable=0;points=[[0,0.5],[1,0.5]];portConstraint=eastwest;" parent="_mon4JP7_cOclulxk8N5-220" vertex="1">
          <mxGeometry y="164" width="250" height="26" as="geometry" />
        </mxCell>
        <mxCell id="_mon4JP7_cOclulxk8N5-371" value="AdminController" style="swimlane;fontStyle=1;childLayout=stackLayout;horizontal=1;startSize=26;horizontalStack=0;resizeParent=1;resizeParentMax=0;resizeLast=0;collapsible=1;marginBottom=0;" parent="1" vertex="1">
          <mxGeometry x="384.5" y="639" width="224" height="528" as="geometry" />
        </mxCell>
        <mxCell id="_mon4JP7_cOclulxk8N5-372" value="-Users: ObservableCollection&lt;User&gt;" style="text;strokeColor=none;fillColor=none;align=left;verticalAlign=top;spacingLeft=4;spacingRight=4;overflow=hidden;rotatable=0;points=[[0,0.5],[1,0.5]];portConstraint=eastwest;" parent="_mon4JP7_cOclulxk8N5-371" vertex="1">
          <mxGeometry y="26" width="224" height="26" as="geometry" />
        </mxCell>
        <mxCell id="_mon4JP7_cOclulxk8N5-373" value="-_subject: Subject" style="text;strokeColor=none;fillColor=none;align=left;verticalAlign=top;spacingLeft=4;spacingRight=4;overflow=hidden;rotatable=0;points=[[0,0.5],[1,0.5]];portConstraint=eastwest;" parent="_mon4JP7_cOclulxk8N5-371" vertex="1">
          <mxGeometry y="52" width="224" height="26" as="geometry" />
        </mxCell>
        <mxCell id="_mon4JP7_cOclulxk8N5-374" value="-utilizatorRepository: UserRepository" style="text;strokeColor=none;fillColor=none;align=left;verticalAlign=top;spacingLeft=4;spacingRight=4;overflow=hidden;rotatable=0;points=[[0,0.5],[1,0.5]];portConstraint=eastwest;" parent="_mon4JP7_cOclulxk8N5-371" vertex="1">
          <mxGeometry y="78" width="224" height="26" as="geometry" />
        </mxCell>
        <mxCell id="_mon4JP7_cOclulxk8N5-375" value="-_adminGUI: AdminGUI" style="text;strokeColor=none;fillColor=none;align=left;verticalAlign=top;spacingLeft=4;spacingRight=4;overflow=hidden;rotatable=0;points=[[0,0.5],[1,0.5]];portConstraint=eastwest;" parent="_mon4JP7_cOclulxk8N5-371" vertex="1">
          <mxGeometry y="104" width="224" height="26" as="geometry" />
        </mxCell>
        <mxCell id="_mon4JP7_cOclulxk8N5-376" value="" style="line;strokeWidth=1;fillColor=none;align=left;verticalAlign=middle;spacingTop=-1;spacingLeft=3;spacingRight=3;rotatable=0;labelPosition=right;points=[];portConstraint=eastwest;" parent="_mon4JP7_cOclulxk8N5-371" vertex="1">
          <mxGeometry y="130" width="224" height="8" as="geometry" />
        </mxCell>
        <mxCell id="_mon4JP7_cOclulxk8N5-377" value="+AddUser(User): void" style="text;strokeColor=none;fillColor=none;align=left;verticalAlign=top;spacingLeft=4;spacingRight=4;overflow=hidden;rotatable=0;points=[[0,0.5],[1,0.5]];portConstraint=eastwest;" parent="_mon4JP7_cOclulxk8N5-371" vertex="1">
          <mxGeometry y="138" width="224" height="26" as="geometry" />
        </mxCell>
        <mxCell id="_mon4JP7_cOclulxk8N5-378" value="+UpdateUser(User): void" style="text;strokeColor=none;fillColor=none;align=left;verticalAlign=top;spacingLeft=4;spacingRight=4;overflow=hidden;rotatable=0;points=[[0,0.5],[1,0.5]];portConstraint=eastwest;" parent="_mon4JP7_cOclulxk8N5-371" vertex="1">
          <mxGeometry y="164" width="224" height="26" as="geometry" />
        </mxCell>
        <mxCell id="_mon4JP7_cOclulxk8N5-379" value="+RemoveUser(User): void" style="text;strokeColor=none;fillColor=none;align=left;verticalAlign=top;spacingLeft=4;spacingRight=4;overflow=hidden;rotatable=0;points=[[0,0.5],[1,0.5]];portConstraint=eastwest;" parent="_mon4JP7_cOclulxk8N5-371" vertex="1">
          <mxGeometry y="190" width="224" height="26" as="geometry" />
        </mxCell>
        <mxCell id="_mon4JP7_cOclulxk8N5-380" value="+Update(): void" style="text;strokeColor=none;fillColor=none;align=left;verticalAlign=top;spacingLeft=4;spacingRight=4;overflow=hidden;rotatable=0;points=[[0,0.5],[1,0.5]];portConstraint=eastwest;" parent="_mon4JP7_cOclulxk8N5-371" vertex="1">
          <mxGeometry y="216" width="224" height="26" as="geometry" />
        </mxCell>
        <mxCell id="_mon4JP7_cOclulxk8N5-381" value="+InitializeEvents(): void" style="text;strokeColor=none;fillColor=none;align=left;verticalAlign=top;spacingLeft=4;spacingRight=4;overflow=hidden;rotatable=0;points=[[0,0.5],[1,0.5]];portConstraint=eastwest;" parent="_mon4JP7_cOclulxk8N5-371" vertex="1">
          <mxGeometry y="242" width="224" height="26" as="geometry" />
        </mxCell>
        <mxCell id="_mon4JP7_cOclulxk8N5-382" value="+ValidUserData(): User" style="text;strokeColor=none;fillColor=none;align=left;verticalAlign=top;spacingLeft=4;spacingRight=4;overflow=hidden;rotatable=0;points=[[0,0.5],[1,0.5]];portConstraint=eastwest;" parent="_mon4JP7_cOclulxk8N5-371" vertex="1">
          <mxGeometry y="268" width="224" height="26" as="geometry" />
        </mxCell>
        <mxCell id="_mon4JP7_cOclulxk8N5-383" value="+ClearFields(): void" style="text;strokeColor=none;fillColor=none;align=left;verticalAlign=top;spacingLeft=4;spacingRight=4;overflow=hidden;rotatable=0;points=[[0,0.5],[1,0.5]];portConstraint=eastwest;" parent="_mon4JP7_cOclulxk8N5-371" vertex="1">
          <mxGeometry y="294" width="224" height="26" as="geometry" />
        </mxCell>
        <mxCell id="_mon4JP7_cOclulxk8N5-384" value="+InitializeUserTypeComboBox(): void" style="text;strokeColor=none;fillColor=none;align=left;verticalAlign=top;spacingLeft=4;spacingRight=4;overflow=hidden;rotatable=0;points=[[0,0.5],[1,0.5]];portConstraint=eastwest;" parent="_mon4JP7_cOclulxk8N5-371" vertex="1">
          <mxGeometry y="320" width="224" height="26" as="geometry" />
        </mxCell>
        <mxCell id="_mon4JP7_cOclulxk8N5-385" value="+CreateUser(object, EventArgs): void" style="text;strokeColor=none;fillColor=none;align=left;verticalAlign=top;spacingLeft=4;spacingRight=4;overflow=hidden;rotatable=0;points=[[0,0.5],[1,0.5]];portConstraint=eastwest;" parent="_mon4JP7_cOclulxk8N5-371" vertex="1">
          <mxGeometry y="346" width="224" height="26" as="geometry" />
        </mxCell>
        <mxCell id="_mon4JP7_cOclulxk8N5-386" value="+LoadUsersTable(): void" style="text;strokeColor=none;fillColor=none;align=left;verticalAlign=top;spacingLeft=4;spacingRight=4;overflow=hidden;rotatable=0;points=[[0,0.5],[1,0.5]];portConstraint=eastwest;" parent="_mon4JP7_cOclulxk8N5-371" vertex="1">
          <mxGeometry y="372" width="224" height="26" as="geometry" />
        </mxCell>
        <mxCell id="_mon4JP7_cOclulxk8N5-387" value="+UpdateUser(object, EventArgs): void" style="text;strokeColor=none;fillColor=none;align=left;verticalAlign=top;spacingLeft=4;spacingRight=4;overflow=hidden;rotatable=0;points=[[0,0.5],[1,0.5]];portConstraint=eastwest;" parent="_mon4JP7_cOclulxk8N5-371" vertex="1">
          <mxGeometry y="398" width="224" height="26" as="geometry" />
        </mxCell>
        <mxCell id="_mon4JP7_cOclulxk8N5-388" value="+DeleteUser(object, EventArgs): void" style="text;strokeColor=none;fillColor=none;align=left;verticalAlign=top;spacingLeft=4;spacingRight=4;overflow=hidden;rotatable=0;points=[[0,0.5],[1,0.5]];portConstraint=eastwest;" parent="_mon4JP7_cOclulxk8N5-371" vertex="1">
          <mxGeometry y="424" width="224" height="26" as="geometry" />
        </mxCell>
        <mxCell id="_mon4JP7_cOclulxk8N5-389" value="+SelectUser(object, EventArgs): void" style="text;strokeColor=none;fillColor=none;align=left;verticalAlign=top;spacingLeft=4;spacingRight=4;overflow=hidden;rotatable=0;points=[[0,0.5],[1,0.5]];portConstraint=eastwest;" parent="_mon4JP7_cOclulxk8N5-371" vertex="1">
          <mxGeometry y="450" width="224" height="26" as="geometry" />
        </mxCell>
        <mxCell id="_mon4JP7_cOclulxk8N5-390" value="+FilterUsers(object, EventArgs): void" style="text;strokeColor=none;fillColor=none;align=left;verticalAlign=top;spacingLeft=4;spacingRight=4;overflow=hidden;rotatable=0;points=[[0,0.5],[1,0.5]];portConstraint=eastwest;" parent="_mon4JP7_cOclulxk8N5-371" vertex="1">
          <mxGeometry y="476" width="224" height="26" as="geometry" />
        </mxCell>
        <mxCell id="_mon4JP7_cOclulxk8N5-391" value="+Back(object, EventArgs): void" style="text;strokeColor=none;fillColor=none;align=left;verticalAlign=top;spacingLeft=4;spacingRight=4;overflow=hidden;rotatable=0;points=[[0,0.5],[1,0.5]];portConstraint=eastwest;" parent="_mon4JP7_cOclulxk8N5-371" vertex="1">
          <mxGeometry y="502" width="224" height="26" as="geometry" />
        </mxCell>
        <mxCell id="_mon4JP7_cOclulxk8N5-392" value="ChartController" style="swimlane;fontStyle=1;childLayout=stackLayout;horizontal=1;startSize=26;horizontalStack=0;resizeParent=1;resizeParentMax=0;resizeLast=0;collapsible=1;marginBottom=0;" parent="1" vertex="1">
          <mxGeometry x="629.5" y="804" width="265" height="242" as="geometry" />
        </mxCell>
        <mxCell id="_mon4JP7_cOclulxk8N5-393" value="-statisticsRepository: StatisticsRepository" style="text;strokeColor=none;fillColor=none;align=left;verticalAlign=top;spacingLeft=4;spacingRight=4;overflow=hidden;rotatable=0;points=[[0,0.5],[1,0.5]];portConstraint=eastwest;" parent="_mon4JP7_cOclulxk8N5-392" vertex="1">
          <mxGeometry y="26" width="265" height="26" as="geometry" />
        </mxCell>
        <mxCell id="_mon4JP7_cOclulxk8N5-394" value="-chartView: ChartView" style="text;strokeColor=none;fillColor=none;align=left;verticalAlign=top;spacingLeft=4;spacingRight=4;overflow=hidden;rotatable=0;points=[[0,0.5],[1,0.5]];portConstraint=eastwest;" parent="_mon4JP7_cOclulxk8N5-392" vertex="1">
          <mxGeometry y="52" width="265" height="26" as="geometry" />
        </mxCell>
        <mxCell id="_mon4JP7_cOclulxk8N5-395" value="" style="line;strokeWidth=1;fillColor=none;align=left;verticalAlign=middle;spacingTop=-1;spacingLeft=3;spacingRight=3;rotatable=0;labelPosition=right;points=[];portConstraint=eastwest;" parent="_mon4JP7_cOclulxk8N5-392" vertex="1">
          <mxGeometry y="78" width="265" height="8" as="geometry" />
        </mxCell>
        <mxCell id="_mon4JP7_cOclulxk8N5-396" value="+SetupParticipantsByConferenceChart(): void" style="text;strokeColor=none;fillColor=none;align=left;verticalAlign=top;spacingLeft=4;spacingRight=4;overflow=hidden;rotatable=0;points=[[0,0.5],[1,0.5]];portConstraint=eastwest;" parent="_mon4JP7_cOclulxk8N5-392" vertex="1">
          <mxGeometry y="86" width="265" height="26" as="geometry" />
        </mxCell>
        <mxCell id="_mon4JP7_cOclulxk8N5-397" value="+SetupParticipantsBySectionChart(): void" style="text;strokeColor=none;fillColor=none;align=left;verticalAlign=top;spacingLeft=4;spacingRight=4;overflow=hidden;rotatable=0;points=[[0,0.5],[1,0.5]];portConstraint=eastwest;" parent="_mon4JP7_cOclulxk8N5-392" vertex="1">
          <mxGeometry y="112" width="265" height="26" as="geometry" />
        </mxCell>
        <mxCell id="_mon4JP7_cOclulxk8N5-398" value="+SetupPresentationsByAuthorChart(): void" style="text;strokeColor=none;fillColor=none;align=left;verticalAlign=top;spacingLeft=4;spacingRight=4;overflow=hidden;rotatable=0;points=[[0,0.5],[1,0.5]];portConstraint=eastwest;" parent="_mon4JP7_cOclulxk8N5-392" vertex="1">
          <mxGeometry y="138" width="265" height="26" as="geometry" />
        </mxCell>
        <mxCell id="_mon4JP7_cOclulxk8N5-399" value="+SetupPresentationsPerDayChart(): void" style="text;strokeColor=none;fillColor=none;align=left;verticalAlign=top;spacingLeft=4;spacingRight=4;overflow=hidden;rotatable=0;points=[[0,0.5],[1,0.5]];portConstraint=eastwest;" parent="_mon4JP7_cOclulxk8N5-392" vertex="1">
          <mxGeometry y="164" width="265" height="26" as="geometry" />
        </mxCell>
        <mxCell id="_mon4JP7_cOclulxk8N5-400" value="+SetupRingChart(): void" style="text;strokeColor=none;fillColor=none;align=left;verticalAlign=top;spacingLeft=4;spacingRight=4;overflow=hidden;rotatable=0;points=[[0,0.5],[1,0.5]];portConstraint=eastwest;" parent="_mon4JP7_cOclulxk8N5-392" vertex="1">
          <mxGeometry y="190" width="265" height="26" as="geometry" />
        </mxCell>
        <mxCell id="_mon4JP7_cOclulxk8N5-401" value="+SetupLineChart(): void" style="text;strokeColor=none;fillColor=none;align=left;verticalAlign=top;spacingLeft=4;spacingRight=4;overflow=hidden;rotatable=0;points=[[0,0.5],[1,0.5]];portConstraint=eastwest;" parent="_mon4JP7_cOclulxk8N5-392" vertex="1">
          <mxGeometry y="216" width="265" height="26" as="geometry" />
        </mxCell>
        <mxCell id="_mon4JP7_cOclulxk8N5-402" value="EmailSender" style="swimlane;fontStyle=1;childLayout=stackLayout;horizontal=1;startSize=26;horizontalStack=0;resizeParent=1;resizeParentMax=0;resizeLast=0;collapsible=1;marginBottom=0;" parent="1" vertex="1">
          <mxGeometry x="637.5" y="639" width="217" height="112" as="geometry" />
        </mxCell>
        <mxCell id="_mon4JP7_cOclulxk8N5-403" value="-fromAddress: string" style="text;strokeColor=none;fillColor=none;align=left;verticalAlign=top;spacingLeft=4;spacingRight=4;overflow=hidden;rotatable=0;points=[[0,0.5],[1,0.5]];portConstraint=eastwest;" parent="_mon4JP7_cOclulxk8N5-402" vertex="1">
          <mxGeometry y="26" width="217" height="26" as="geometry" />
        </mxCell>
        <mxCell id="_mon4JP7_cOclulxk8N5-404" value="-fromPassword: string" style="text;strokeColor=none;fillColor=none;align=left;verticalAlign=top;spacingLeft=4;spacingRight=4;overflow=hidden;rotatable=0;points=[[0,0.5],[1,0.5]];portConstraint=eastwest;" parent="_mon4JP7_cOclulxk8N5-402" vertex="1">
          <mxGeometry y="52" width="217" height="26" as="geometry" />
        </mxCell>
        <mxCell id="_mon4JP7_cOclulxk8N5-405" value="" style="line;strokeWidth=1;fillColor=none;align=left;verticalAlign=middle;spacingTop=-1;spacingLeft=3;spacingRight=3;rotatable=0;labelPosition=right;points=[];portConstraint=eastwest;" parent="_mon4JP7_cOclulxk8N5-402" vertex="1">
          <mxGeometry y="78" width="217" height="8" as="geometry" />
        </mxCell>
        <mxCell id="_mon4JP7_cOclulxk8N5-406" value="+SendMail(string, string, string): void" style="text;strokeColor=none;fillColor=none;align=left;verticalAlign=top;spacingLeft=4;spacingRight=4;overflow=hidden;rotatable=0;points=[[0,0.5],[1,0.5]];portConstraint=eastwest;" parent="_mon4JP7_cOclulxk8N5-402" vertex="1">
          <mxGeometry y="86" width="217" height="26" as="geometry" />
        </mxCell>
        <mxCell id="_mon4JP7_cOclulxk8N5-407" value="FileManager" style="swimlane;fontStyle=1;childLayout=stackLayout;horizontal=1;startSize=26;horizontalStack=0;resizeParent=1;resizeParentMax=0;resizeLast=0;collapsible=1;marginBottom=0;" parent="1" vertex="1">
          <mxGeometry x="1111.5" y="1065" width="220" height="190" as="geometry" />
        </mxCell>
        <mxCell id="_mon4JP7_cOclulxk8N5-408" value="-_imagesDirectory: string" style="text;strokeColor=none;fillColor=none;align=left;verticalAlign=top;spacingLeft=4;spacingRight=4;overflow=hidden;rotatable=0;points=[[0,0.5],[1,0.5]];portConstraint=eastwest;" parent="_mon4JP7_cOclulxk8N5-407" vertex="1">
          <mxGeometry y="26" width="220" height="26" as="geometry" />
        </mxCell>
        <mxCell id="_mon4JP7_cOclulxk8N5-409" value="-_documentsDirectory: string" style="text;strokeColor=none;fillColor=none;align=left;verticalAlign=top;spacingLeft=4;spacingRight=4;overflow=hidden;rotatable=0;points=[[0,0.5],[1,0.5]];portConstraint=eastwest;" parent="_mon4JP7_cOclulxk8N5-407" vertex="1">
          <mxGeometry y="52" width="220" height="26" as="geometry" />
        </mxCell>
        <mxCell id="_mon4JP7_cOclulxk8N5-410" value="" style="line;strokeWidth=1;fillColor=none;align=left;verticalAlign=middle;spacingTop=-1;spacingLeft=3;spacingRight=3;rotatable=0;labelPosition=right;points=[];portConstraint=eastwest;" parent="_mon4JP7_cOclulxk8N5-407" vertex="1">
          <mxGeometry y="78" width="220" height="8" as="geometry" />
        </mxCell>
        <mxCell id="_mon4JP7_cOclulxk8N5-411" value="+InitializeDirectories(): void" style="text;strokeColor=none;fillColor=none;align=left;verticalAlign=top;spacingLeft=4;spacingRight=4;overflow=hidden;rotatable=0;points=[[0,0.5],[1,0.5]];portConstraint=eastwest;" parent="_mon4JP7_cOclulxk8N5-407" vertex="1">
          <mxGeometry y="86" width="220" height="26" as="geometry" />
        </mxCell>
        <mxCell id="_mon4JP7_cOclulxk8N5-412" value="+CopyFile(string, string): void" style="text;strokeColor=none;fillColor=none;align=left;verticalAlign=top;spacingLeft=4;spacingRight=4;overflow=hidden;rotatable=0;points=[[0,0.5],[1,0.5]];portConstraint=eastwest;" parent="_mon4JP7_cOclulxk8N5-407" vertex="1">
          <mxGeometry y="112" width="220" height="26" as="geometry" />
        </mxCell>
        <mxCell id="_mon4JP7_cOclulxk8N5-413" value="+GetImageFilePath(string): string" style="text;strokeColor=none;fillColor=none;align=left;verticalAlign=top;spacingLeft=4;spacingRight=4;overflow=hidden;rotatable=0;points=[[0,0.5],[1,0.5]];portConstraint=eastwest;" parent="_mon4JP7_cOclulxk8N5-407" vertex="1">
          <mxGeometry y="138" width="220" height="26" as="geometry" />
        </mxCell>
        <mxCell id="_mon4JP7_cOclulxk8N5-414" value="+GetDocumentFilePath(string): string" style="text;strokeColor=none;fillColor=none;align=left;verticalAlign=top;spacingLeft=4;spacingRight=4;overflow=hidden;rotatable=0;points=[[0,0.5],[1,0.5]];portConstraint=eastwest;" parent="_mon4JP7_cOclulxk8N5-407" vertex="1">
          <mxGeometry y="164" width="220" height="26" as="geometry" />
        </mxCell>
        <mxCell id="_mon4JP7_cOclulxk8N5-530" style="edgeStyle=orthogonalEdgeStyle;rounded=0;orthogonalLoop=1;jettySize=auto;html=1;jumpStyle=arc;" parent="1" source="_mon4JP7_cOclulxk8N5-415" target="_mon4JP7_cOclulxk8N5-213" edge="1">
          <mxGeometry relative="1" as="geometry" />
        </mxCell>
        <mxCell id="_mon4JP7_cOclulxk8N5-531" style="edgeStyle=orthogonalEdgeStyle;rounded=0;orthogonalLoop=1;jettySize=auto;html=1;jumpStyle=arc;" parent="1" source="_mon4JP7_cOclulxk8N5-415" target="_mon4JP7_cOclulxk8N5-220" edge="1">
          <mxGeometry relative="1" as="geometry">
            <Array as="points">
              <mxPoint x="890" y="260" />
              <mxPoint x="890" y="-530" />
            </Array>
          </mxGeometry>
        </mxCell>
        <mxCell id="4" style="edgeStyle=none;html=1;entryX=1;entryY=0.5;entryDx=0;entryDy=0;" parent="1" source="_mon4JP7_cOclulxk8N5-415" target="_mon4JP7_cOclulxk8N5-227" edge="1">
          <mxGeometry relative="1" as="geometry" />
        </mxCell>
        <mxCell id="_mon4JP7_cOclulxk8N5-415" value="HomeController" style="swimlane;fontStyle=1;childLayout=stackLayout;horizontal=1;startSize=26;horizontalStack=0;resizeParent=1;resizeParentMax=0;resizeLast=0;collapsible=1;marginBottom=0;" parent="1" vertex="1">
          <mxGeometry x="932.5" y="46" width="399" height="996" as="geometry" />
        </mxCell>
        <mxCell id="_mon4JP7_cOclulxk8N5-416" value="-Presentations: ObservableCollection&lt;Presentation&gt;" style="text;strokeColor=none;fillColor=none;align=left;verticalAlign=top;spacingLeft=4;spacingRight=4;overflow=hidden;rotatable=0;points=[[0,0.5],[1,0.5]];portConstraint=eastwest;" parent="_mon4JP7_cOclulxk8N5-415" vertex="1">
          <mxGeometry y="26" width="399" height="26" as="geometry" />
        </mxCell>
        <mxCell id="_mon4JP7_cOclulxk8N5-417" value="-_subject: Subject" style="text;strokeColor=none;fillColor=none;align=left;verticalAlign=top;spacingLeft=4;spacingRight=4;overflow=hidden;rotatable=0;points=[[0,0.5],[1,0.5]];portConstraint=eastwest;" parent="_mon4JP7_cOclulxk8N5-415" vertex="1">
          <mxGeometry y="52" width="399" height="26" as="geometry" />
        </mxCell>
        <mxCell id="_mon4JP7_cOclulxk8N5-418" value="-_participantRepository: ParticipantRepository" style="text;strokeColor=none;fillColor=none;align=left;verticalAlign=top;spacingLeft=4;spacingRight=4;overflow=hidden;rotatable=0;points=[[0,0.5],[1,0.5]];portConstraint=eastwest;" parent="_mon4JP7_cOclulxk8N5-415" vertex="1">
          <mxGeometry y="78" width="399" height="26" as="geometry" />
        </mxCell>
        <mxCell id="_mon4JP7_cOclulxk8N5-419" value="-_presentationRepository: PresentationRepository" style="text;strokeColor=none;fillColor=none;align=left;verticalAlign=top;spacingLeft=4;spacingRight=4;overflow=hidden;rotatable=0;points=[[0,0.5],[1,0.5]];portConstraint=eastwest;" parent="_mon4JP7_cOclulxk8N5-415" vertex="1">
          <mxGeometry y="104" width="399" height="26" as="geometry" />
        </mxCell>
        <mxCell id="_mon4JP7_cOclulxk8N5-420" value="-_participantPresentationRepository: Participant_PrezentareRepository" style="text;strokeColor=none;fillColor=none;align=left;verticalAlign=top;spacingLeft=4;spacingRight=4;overflow=hidden;rotatable=0;points=[[0,0.5],[1,0.5]];portConstraint=eastwest;" parent="_mon4JP7_cOclulxk8N5-415" vertex="1">
          <mxGeometry y="130" width="399" height="26" as="geometry" />
        </mxCell>
        <mxCell id="_mon4JP7_cOclulxk8N5-421" value="-_imagesDirectory: string" style="text;strokeColor=none;fillColor=none;align=left;verticalAlign=top;spacingLeft=4;spacingRight=4;overflow=hidden;rotatable=0;points=[[0,0.5],[1,0.5]];portConstraint=eastwest;" parent="_mon4JP7_cOclulxk8N5-415" vertex="1">
          <mxGeometry y="156" width="399" height="26" as="geometry" />
        </mxCell>
        <mxCell id="_mon4JP7_cOclulxk8N5-422" value="-_documentsDirectory: string" style="text;strokeColor=none;fillColor=none;align=left;verticalAlign=top;spacingLeft=4;spacingRight=4;overflow=hidden;rotatable=0;points=[[0,0.5],[1,0.5]];portConstraint=eastwest;" parent="_mon4JP7_cOclulxk8N5-415" vertex="1">
          <mxGeometry y="182" width="399" height="26" as="geometry" />
        </mxCell>
        <mxCell id="_mon4JP7_cOclulxk8N5-423" value="-_homeGUI: HomeGUI" style="text;strokeColor=none;fillColor=none;align=left;verticalAlign=top;spacingLeft=4;spacingRight=4;overflow=hidden;rotatable=0;points=[[0,0.5],[1,0.5]];portConstraint=eastwest;" parent="_mon4JP7_cOclulxk8N5-415" vertex="1">
          <mxGeometry y="208" width="399" height="26" as="geometry" />
        </mxCell>
        <mxCell id="_mon4JP7_cOclulxk8N5-424" value="" style="line;strokeWidth=1;fillColor=none;align=left;verticalAlign=middle;spacingTop=-1;spacingLeft=3;spacingRight=3;rotatable=0;labelPosition=right;points=[];portConstraint=eastwest;" parent="_mon4JP7_cOclulxk8N5-415" vertex="1">
          <mxGeometry y="234" width="399" height="8" as="geometry" />
        </mxCell>
        <mxCell id="_mon4JP7_cOclulxk8N5-425" value="+AddPresentation(Presentation): void" style="text;strokeColor=none;fillColor=none;align=left;verticalAlign=top;spacingLeft=4;spacingRight=4;overflow=hidden;rotatable=0;points=[[0,0.5],[1,0.5]];portConstraint=eastwest;" parent="_mon4JP7_cOclulxk8N5-415" vertex="1">
          <mxGeometry y="242" width="399" height="26" as="geometry" />
        </mxCell>
        <mxCell id="_mon4JP7_cOclulxk8N5-426" value="+UpdatePresentation(Presentation): void" style="text;strokeColor=none;fillColor=none;align=left;verticalAlign=top;spacingLeft=4;spacingRight=4;overflow=hidden;rotatable=0;points=[[0,0.5],[1,0.5]];portConstraint=eastwest;" parent="_mon4JP7_cOclulxk8N5-415" vertex="1">
          <mxGeometry y="268" width="399" height="26" as="geometry" />
        </mxCell>
        <mxCell id="_mon4JP7_cOclulxk8N5-427" value="+RemovePresentation(Presentation): void" style="text;strokeColor=none;fillColor=none;align=left;verticalAlign=top;spacingLeft=4;spacingRight=4;overflow=hidden;rotatable=0;points=[[0,0.5],[1,0.5]];portConstraint=eastwest;" parent="_mon4JP7_cOclulxk8N5-415" vertex="1">
          <mxGeometry y="294" width="399" height="26" as="geometry" />
        </mxCell>
        <mxCell id="_mon4JP7_cOclulxk8N5-428" value="+Update(): void" style="text;strokeColor=none;fillColor=none;align=left;verticalAlign=top;spacingLeft=4;spacingRight=4;overflow=hidden;rotatable=0;points=[[0,0.5],[1,0.5]];portConstraint=eastwest;" parent="_mon4JP7_cOclulxk8N5-415" vertex="1">
          <mxGeometry y="320" width="399" height="26" as="geometry" />
        </mxCell>
        <mxCell id="_mon4JP7_cOclulxk8N5-429" value="+InitializeEvents(): void" style="text;strokeColor=none;fillColor=none;align=left;verticalAlign=top;spacingLeft=4;spacingRight=4;overflow=hidden;rotatable=0;points=[[0,0.5],[1,0.5]];portConstraint=eastwest;" parent="_mon4JP7_cOclulxk8N5-415" vertex="1">
          <mxGeometry y="346" width="399" height="26" as="geometry" />
        </mxCell>
        <mxCell id="_mon4JP7_cOclulxk8N5-430" value="+InitializeDirectories(): void" style="text;strokeColor=none;fillColor=none;align=left;verticalAlign=top;spacingLeft=4;spacingRight=4;overflow=hidden;rotatable=0;points=[[0,0.5],[1,0.5]];portConstraint=eastwest;" parent="_mon4JP7_cOclulxk8N5-415" vertex="1">
          <mxGeometry y="372" width="399" height="26" as="geometry" />
        </mxCell>
        <mxCell id="_mon4JP7_cOclulxk8N5-431" value="+InitializePrezentareParticipantComboBox(): void" style="text;strokeColor=none;fillColor=none;align=left;verticalAlign=top;spacingLeft=4;spacingRight=4;overflow=hidden;rotatable=0;points=[[0,0.5],[1,0.5]];portConstraint=eastwest;" parent="_mon4JP7_cOclulxk8N5-415" vertex="1">
          <mxGeometry y="398" width="399" height="26" as="geometry" />
        </mxCell>
        <mxCell id="_mon4JP7_cOclulxk8N5-432" value="+InitializePresentationSectionComboBox(): void" style="text;strokeColor=none;fillColor=none;align=left;verticalAlign=top;spacingLeft=4;spacingRight=4;overflow=hidden;rotatable=0;points=[[0,0.5],[1,0.5]];portConstraint=eastwest;" parent="_mon4JP7_cOclulxk8N5-415" vertex="1">
          <mxGeometry y="424" width="399" height="26" as="geometry" />
        </mxCell>
        <mxCell id="_mon4JP7_cOclulxk8N5-433" value="+ShowAuthorFields(bool): void" style="text;strokeColor=none;fillColor=none;align=left;verticalAlign=top;spacingLeft=4;spacingRight=4;overflow=hidden;rotatable=0;points=[[0,0.5],[1,0.5]];portConstraint=eastwest;" parent="_mon4JP7_cOclulxk8N5-415" vertex="1">
          <mxGeometry y="450" width="399" height="26" as="geometry" />
        </mxCell>
        <mxCell id="_mon4JP7_cOclulxk8N5-434" value="+ShowParticipantFields(bool): void" style="text;strokeColor=none;fillColor=none;align=left;verticalAlign=top;spacingLeft=4;spacingRight=4;overflow=hidden;rotatable=0;points=[[0,0.5],[1,0.5]];portConstraint=eastwest;" parent="_mon4JP7_cOclulxk8N5-415" vertex="1">
          <mxGeometry y="476" width="399" height="26" as="geometry" />
        </mxCell>
        <mxCell id="_mon4JP7_cOclulxk8N5-435" value="+ValidParticipantData(): Participant" style="text;strokeColor=none;fillColor=none;align=left;verticalAlign=top;spacingLeft=4;spacingRight=4;overflow=hidden;rotatable=0;points=[[0,0.5],[1,0.5]];portConstraint=eastwest;" parent="_mon4JP7_cOclulxk8N5-415" vertex="1">
          <mxGeometry y="502" width="399" height="26" as="geometry" />
        </mxCell>
        <mxCell id="_mon4JP7_cOclulxk8N5-436" value="+ValidPresentationData(): Presentation" style="text;strokeColor=none;fillColor=none;align=left;verticalAlign=top;spacingLeft=4;spacingRight=4;overflow=hidden;rotatable=0;points=[[0,0.5],[1,0.5]];portConstraint=eastwest;" parent="_mon4JP7_cOclulxk8N5-415" vertex="1">
          <mxGeometry y="528" width="399" height="26" as="geometry" />
        </mxCell>
        <mxCell id="_mon4JP7_cOclulxk8N5-437" value="+ClearFields(): void" style="text;strokeColor=none;fillColor=none;align=left;verticalAlign=top;spacingLeft=4;spacingRight=4;overflow=hidden;rotatable=0;points=[[0,0.5],[1,0.5]];portConstraint=eastwest;" parent="_mon4JP7_cOclulxk8N5-415" vertex="1">
          <mxGeometry y="554" width="399" height="26" as="geometry" />
        </mxCell>
        <mxCell id="_mon4JP7_cOclulxk8N5-438" value="+CopyFile(string, string): void" style="text;strokeColor=none;fillColor=none;align=left;verticalAlign=top;spacingLeft=4;spacingRight=4;overflow=hidden;rotatable=0;points=[[0,0.5],[1,0.5]];portConstraint=eastwest;" parent="_mon4JP7_cOclulxk8N5-415" vertex="1">
          <mxGeometry y="580" width="399" height="26" as="geometry" />
        </mxCell>
        <mxCell id="_mon4JP7_cOclulxk8N5-439" value="+CreateParticipant(): void" style="text;strokeColor=none;fillColor=none;align=left;verticalAlign=top;spacingLeft=4;spacingRight=4;overflow=hidden;rotatable=0;points=[[0,0.5],[1,0.5]];portConstraint=eastwest;" parent="_mon4JP7_cOclulxk8N5-415" vertex="1">
          <mxGeometry y="606" width="399" height="26" as="geometry" />
        </mxCell>
        <mxCell id="_mon4JP7_cOclulxk8N5-440" value="+CreateAuthor(): void" style="text;strokeColor=none;fillColor=none;align=left;verticalAlign=top;spacingLeft=4;spacingRight=4;overflow=hidden;rotatable=0;points=[[0,0.5],[1,0.5]];portConstraint=eastwest;" parent="_mon4JP7_cOclulxk8N5-415" vertex="1">
          <mxGeometry y="632" width="399" height="26" as="geometry" />
        </mxCell>
        <mxCell id="_mon4JP7_cOclulxk8N5-441" value="+Inscriere(object, RoutedEventArgs): void" style="text;strokeColor=none;fillColor=none;align=left;verticalAlign=top;spacingLeft=4;spacingRight=4;overflow=hidden;rotatable=0;points=[[0,0.5],[1,0.5]];portConstraint=eastwest;" parent="_mon4JP7_cOclulxk8N5-415" vertex="1">
          <mxGeometry y="658" width="399" height="26" as="geometry" />
        </mxCell>
        <mxCell id="_mon4JP7_cOclulxk8N5-442" value="+GetRelativePath(string, string): string" style="text;strokeColor=none;fillColor=none;align=left;verticalAlign=top;spacingLeft=4;spacingRight=4;overflow=hidden;rotatable=0;points=[[0,0.5],[1,0.5]];portConstraint=eastwest;" parent="_mon4JP7_cOclulxk8N5-415" vertex="1">
          <mxGeometry y="684" width="399" height="26" as="geometry" />
        </mxCell>
        <mxCell id="_mon4JP7_cOclulxk8N5-443" value="+BrowseFile(string): string" style="text;strokeColor=none;fillColor=none;align=left;verticalAlign=top;spacingLeft=4;spacingRight=4;overflow=hidden;rotatable=0;points=[[0,0.5],[1,0.5]];portConstraint=eastwest;" parent="_mon4JP7_cOclulxk8N5-415" vertex="1">
          <mxGeometry y="710" width="399" height="26" as="geometry" />
        </mxCell>
        <mxCell id="_mon4JP7_cOclulxk8N5-444" value="+BrowsePhoto_Click(object, RoutedEventArgs): void" style="text;strokeColor=none;fillColor=none;align=left;verticalAlign=top;spacingLeft=4;spacingRight=4;overflow=hidden;rotatable=0;points=[[0,0.5],[1,0.5]];portConstraint=eastwest;" parent="_mon4JP7_cOclulxk8N5-415" vertex="1">
          <mxGeometry y="736" width="399" height="26" as="geometry" />
        </mxCell>
        <mxCell id="_mon4JP7_cOclulxk8N5-445" value="+BrowseDocument_Click(object, RoutedEventArgs): void" style="text;strokeColor=none;fillColor=none;align=left;verticalAlign=top;spacingLeft=4;spacingRight=4;overflow=hidden;rotatable=0;points=[[0,0.5],[1,0.5]];portConstraint=eastwest;" parent="_mon4JP7_cOclulxk8N5-415" vertex="1">
          <mxGeometry y="762" width="399" height="26" as="geometry" />
        </mxCell>
        <mxCell id="_mon4JP7_cOclulxk8N5-446" value="+AuthorSelectionChanged(object, SelectionChangedEventArgs): void" style="text;strokeColor=none;fillColor=none;align=left;verticalAlign=top;spacingLeft=4;spacingRight=4;overflow=hidden;rotatable=0;points=[[0,0.5],[1,0.5]];portConstraint=eastwest;" parent="_mon4JP7_cOclulxk8N5-415" vertex="1">
          <mxGeometry y="788" width="399" height="26" as="geometry" />
        </mxCell>
        <mxCell id="_mon4JP7_cOclulxk8N5-447" value="+FilterTablePrezentari(object, EventArgs): void" style="text;strokeColor=none;fillColor=none;align=left;verticalAlign=top;spacingLeft=4;spacingRight=4;overflow=hidden;rotatable=0;points=[[0,0.5],[1,0.5]];portConstraint=eastwest;" parent="_mon4JP7_cOclulxk8N5-415" vertex="1">
          <mxGeometry y="814" width="399" height="26" as="geometry" />
        </mxCell>
        <mxCell id="_mon4JP7_cOclulxk8N5-448" value="+LoadPresentationsTable(): void" style="text;strokeColor=none;fillColor=none;align=left;verticalAlign=top;spacingLeft=4;spacingRight=4;overflow=hidden;rotatable=0;points=[[0,0.5],[1,0.5]];portConstraint=eastwest;" parent="_mon4JP7_cOclulxk8N5-415" vertex="1">
          <mxGeometry y="840" width="399" height="26" as="geometry" />
        </mxCell>
        <mxCell id="_mon4JP7_cOclulxk8N5-449" value="+LoadFilterdPresentationTable(Section): void" style="text;strokeColor=none;fillColor=none;align=left;verticalAlign=top;spacingLeft=4;spacingRight=4;overflow=hidden;rotatable=0;points=[[0,0.5],[1,0.5]];portConstraint=eastwest;" parent="_mon4JP7_cOclulxk8N5-415" vertex="1">
          <mxGeometry y="866" width="399" height="26" as="geometry" />
        </mxCell>
        <mxCell id="_mon4JP7_cOclulxk8N5-450" value="+DownloadLink_Click(string): void" style="text;strokeColor=none;fillColor=none;align=left;verticalAlign=top;spacingLeft=4;spacingRight=4;overflow=hidden;rotatable=0;points=[[0,0.5],[1,0.5]];portConstraint=eastwest;" parent="_mon4JP7_cOclulxk8N5-415" vertex="1">
          <mxGeometry y="892" width="399" height="26" as="geometry" />
        </mxCell>
        <mxCell id="_mon4JP7_cOclulxk8N5-451" value="+Login(object, EventArgs): void" style="text;strokeColor=none;fillColor=none;align=left;verticalAlign=top;spacingLeft=4;spacingRight=4;overflow=hidden;rotatable=0;points=[[0,0.5],[1,0.5]];portConstraint=eastwest;" parent="_mon4JP7_cOclulxk8N5-415" vertex="1">
          <mxGeometry y="918" width="399" height="26" as="geometry" />
        </mxCell>
        <mxCell id="_mon4JP7_cOclulxk8N5-452" value="+EnglishButton_Click(object, RoutedEventArgs): void" style="text;strokeColor=none;fillColor=none;align=left;verticalAlign=top;spacingLeft=4;spacingRight=4;overflow=hidden;rotatable=0;points=[[0,0.5],[1,0.5]];portConstraint=eastwest;" parent="_mon4JP7_cOclulxk8N5-415" vertex="1">
          <mxGeometry y="944" width="399" height="26" as="geometry" />
        </mxCell>
        <mxCell id="_mon4JP7_cOclulxk8N5-453" value="+RomanianButton_Click(object, RoutedEventArgs): void" style="text;strokeColor=none;fillColor=none;align=left;verticalAlign=top;spacingLeft=4;spacingRight=4;overflow=hidden;rotatable=0;points=[[0,0.5],[1,0.5]];portConstraint=eastwest;" parent="_mon4JP7_cOclulxk8N5-415" vertex="1">
          <mxGeometry y="970" width="399" height="26" as="geometry" />
        </mxCell>
        <mxCell id="_mon4JP7_cOclulxk8N5-454" value="FileWriter" style="swimlane;fontStyle=1;childLayout=stackLayout;horizontal=1;startSize=26;horizontalStack=0;resizeParent=1;resizeParentMax=0;resizeLast=0;collapsible=1;marginBottom=0;" parent="1" vertex="1">
          <mxGeometry x="635" y="1078" width="254" height="164" as="geometry" />
        </mxCell>
        <mxCell id="_mon4JP7_cOclulxk8N5-455" value="" style="line;strokeWidth=1;fillColor=none;align=left;verticalAlign=middle;spacingTop=-1;spacingLeft=3;spacingRight=3;rotatable=0;labelPosition=right;points=[];portConstraint=eastwest;" parent="_mon4JP7_cOclulxk8N5-454" vertex="1">
          <mxGeometry y="26" width="254" height="8" as="geometry" />
        </mxCell>
        <mxCell id="_mon4JP7_cOclulxk8N5-456" value="+SaveCsv(List&lt;Model.Presentation&gt;): void" style="text;strokeColor=none;fillColor=none;align=left;verticalAlign=top;spacingLeft=4;spacingRight=4;overflow=hidden;rotatable=0;points=[[0,0.5],[1,0.5]];portConstraint=eastwest;" parent="_mon4JP7_cOclulxk8N5-454" vertex="1">
          <mxGeometry y="34" width="254" height="26" as="geometry" />
        </mxCell>
        <mxCell id="_mon4JP7_cOclulxk8N5-457" value="+SaveJson(List&lt;Model.Presentation&gt;): void" style="text;strokeColor=none;fillColor=none;align=left;verticalAlign=top;spacingLeft=4;spacingRight=4;overflow=hidden;rotatable=0;points=[[0,0.5],[1,0.5]];portConstraint=eastwest;" parent="_mon4JP7_cOclulxk8N5-454" vertex="1">
          <mxGeometry y="60" width="254" height="26" as="geometry" />
        </mxCell>
        <mxCell id="_mon4JP7_cOclulxk8N5-458" value="+SaveXml(List&lt;Model.Presentation&gt;): void" style="text;strokeColor=none;fillColor=none;align=left;verticalAlign=top;spacingLeft=4;spacingRight=4;overflow=hidden;rotatable=0;points=[[0,0.5],[1,0.5]];portConstraint=eastwest;" parent="_mon4JP7_cOclulxk8N5-454" vertex="1">
          <mxGeometry y="86" width="254" height="26" as="geometry" />
        </mxCell>
        <mxCell id="_mon4JP7_cOclulxk8N5-459" value="+SaveDoc(List&lt;Model.Presentation&gt;): void" style="text;strokeColor=none;fillColor=none;align=left;verticalAlign=top;spacingLeft=4;spacingRight=4;overflow=hidden;rotatable=0;points=[[0,0.5],[1,0.5]];portConstraint=eastwest;" parent="_mon4JP7_cOclulxk8N5-454" vertex="1">
          <mxGeometry y="112" width="254" height="26" as="geometry" />
        </mxCell>
        <mxCell id="_mon4JP7_cOclulxk8N5-460" value="+SaveDocFromCsv(): void" style="text;strokeColor=none;fillColor=none;align=left;verticalAlign=top;spacingLeft=4;spacingRight=4;overflow=hidden;rotatable=0;points=[[0,0.5],[1,0.5]];portConstraint=eastwest;" parent="_mon4JP7_cOclulxk8N5-454" vertex="1">
          <mxGeometry y="138" width="254" height="26" as="geometry" />
        </mxCell>
        <mxCell id="_mon4JP7_cOclulxk8N5-461" value="UtilizatorController" style="swimlane;fontStyle=1;childLayout=stackLayout;horizontal=1;startSize=26;horizontalStack=0;resizeParent=1;resizeParentMax=0;resizeLast=0;collapsible=1;marginBottom=0;" parent="1" vertex="1">
          <mxGeometry x="441.5" y="351" width="399" height="242" as="geometry" />
        </mxCell>
        <mxCell id="_mon4JP7_cOclulxk8N5-462" value="-_presentationRepository: PresentationRepository" style="text;strokeColor=none;fillColor=none;align=left;verticalAlign=top;spacingLeft=4;spacingRight=4;overflow=hidden;rotatable=0;points=[[0,0.5],[1,0.5]];portConstraint=eastwest;" parent="_mon4JP7_cOclulxk8N5-461" vertex="1">
          <mxGeometry y="26" width="399" height="26" as="geometry" />
        </mxCell>
        <mxCell id="_mon4JP7_cOclulxk8N5-463" value="-_conferenceRepository: ConferenceRepository" style="text;strokeColor=none;fillColor=none;align=left;verticalAlign=top;spacingLeft=4;spacingRight=4;overflow=hidden;rotatable=0;points=[[0,0.5],[1,0.5]];portConstraint=eastwest;" parent="_mon4JP7_cOclulxk8N5-461" vertex="1">
          <mxGeometry y="52" width="399" height="26" as="geometry" />
        </mxCell>
        <mxCell id="_mon4JP7_cOclulxk8N5-464" value="-_participantRepository: ParticipantRepository" style="text;strokeColor=none;fillColor=none;align=left;verticalAlign=top;spacingLeft=4;spacingRight=4;overflow=hidden;rotatable=0;points=[[0,0.5],[1,0.5]];portConstraint=eastwest;" parent="_mon4JP7_cOclulxk8N5-461" vertex="1">
          <mxGeometry y="78" width="399" height="26" as="geometry" />
        </mxCell>
        <mxCell id="_mon4JP7_cOclulxk8N5-465" value="-_participantPresentationRepository: Participant_PrezentareRepository" style="text;strokeColor=none;fillColor=none;align=left;verticalAlign=top;spacingLeft=4;spacingRight=4;overflow=hidden;rotatable=0;points=[[0,0.5],[1,0.5]];portConstraint=eastwest;" parent="_mon4JP7_cOclulxk8N5-461" vertex="1">
          <mxGeometry y="104" width="399" height="26" as="geometry" />
        </mxCell>
        <mxCell id="_mon4JP7_cOclulxk8N5-466" value="-_utilizatorGUI: UtilizatorGUI" style="text;strokeColor=none;fillColor=none;align=left;verticalAlign=top;spacingLeft=4;spacingRight=4;overflow=hidden;rotatable=0;points=[[0,0.5],[1,0.5]];portConstraint=eastwest;" parent="_mon4JP7_cOclulxk8N5-461" vertex="1">
          <mxGeometry y="130" width="399" height="26" as="geometry" />
        </mxCell>
        <mxCell id="_mon4JP7_cOclulxk8N5-467" value="" style="line;strokeWidth=1;fillColor=none;align=left;verticalAlign=middle;spacingTop=-1;spacingLeft=3;spacingRight=3;rotatable=0;labelPosition=right;points=[];portConstraint=eastwest;" parent="_mon4JP7_cOclulxk8N5-461" vertex="1">
          <mxGeometry y="156" width="399" height="8" as="geometry" />
        </mxCell>
        <mxCell id="_mon4JP7_cOclulxk8N5-468" value="+InitializeEvents(): void" style="text;strokeColor=none;fillColor=none;align=left;verticalAlign=top;spacingLeft=4;spacingRight=4;overflow=hidden;rotatable=0;points=[[0,0.5],[1,0.5]];portConstraint=eastwest;" parent="_mon4JP7_cOclulxk8N5-461" vertex="1">
          <mxGeometry y="164" width="399" height="26" as="geometry" />
        </mxCell>
        <mxCell id="_mon4JP7_cOclulxk8N5-469" value="+LoadConferencesTable(): void" style="text;strokeColor=none;fillColor=none;align=left;verticalAlign=top;spacingLeft=4;spacingRight=4;overflow=hidden;rotatable=0;points=[[0,0.5],[1,0.5]];portConstraint=eastwest;" parent="_mon4JP7_cOclulxk8N5-461" vertex="1">
          <mxGeometry y="190" width="399" height="26" as="geometry" />
        </mxCell>
        <mxCell id="_mon4JP7_cOclulxk8N5-470" value="+Back(object, EventArgs): void" style="text;strokeColor=none;fillColor=none;align=left;verticalAlign=top;spacingLeft=4;spacingRight=4;overflow=hidden;rotatable=0;points=[[0,0.5],[1,0.5]];portConstraint=eastwest;" parent="_mon4JP7_cOclulxk8N5-461" vertex="1">
          <mxGeometry y="216" width="399" height="26" as="geometry" />
        </mxCell>
        <mxCell id="_mon4JP7_cOclulxk8N5-528" style="edgeStyle=orthogonalEdgeStyle;rounded=0;orthogonalLoop=1;jettySize=auto;html=1;jumpStyle=arc;" parent="1" source="_mon4JP7_cOclulxk8N5-471" target="_mon4JP7_cOclulxk8N5-201" edge="1">
          <mxGeometry relative="1" as="geometry">
            <Array as="points">
              <mxPoint x="660" y="620" />
            </Array>
          </mxGeometry>
        </mxCell>
        <mxCell id="2" style="edgeStyle=none;html=1;entryX=0.657;entryY=1.313;entryDx=0;entryDy=0;entryPerimeter=0;" parent="1" source="_mon4JP7_cOclulxk8N5-471" target="_mon4JP7_cOclulxk8N5-139" edge="1">
          <mxGeometry relative="1" as="geometry" />
        </mxCell>
        <mxCell id="_mon4JP7_cOclulxk8N5-471" value="OrganizatorController" style="swimlane;fontStyle=1;childLayout=stackLayout;horizontal=1;startSize=26;horizontalStack=0;resizeParent=1;resizeParentMax=0;resizeLast=0;collapsible=1;marginBottom=0;" parent="1" vertex="1">
          <mxGeometry x="-58.5" y="60" width="390" height="1178" as="geometry" />
        </mxCell>
        <mxCell id="_mon4JP7_cOclulxk8N5-472" value="-Presentations: ObservableCollection&lt;Presentation&gt;" style="text;strokeColor=none;fillColor=none;align=left;verticalAlign=top;spacingLeft=4;spacingRight=4;overflow=hidden;rotatable=0;points=[[0,0.5],[1,0.5]];portConstraint=eastwest;" parent="_mon4JP7_cOclulxk8N5-471" vertex="1">
          <mxGeometry y="26" width="390" height="26" as="geometry" />
        </mxCell>
        <mxCell id="_mon4JP7_cOclulxk8N5-473" value="-_subject: Subject" style="text;strokeColor=none;fillColor=none;align=left;verticalAlign=top;spacingLeft=4;spacingRight=4;overflow=hidden;rotatable=0;points=[[0,0.5],[1,0.5]];portConstraint=eastwest;" parent="_mon4JP7_cOclulxk8N5-471" vertex="1">
          <mxGeometry y="52" width="390" height="26" as="geometry" />
        </mxCell>
        <mxCell id="_mon4JP7_cOclulxk8N5-474" value="-organizatorGUI: OrganizatorGUI" style="text;strokeColor=none;fillColor=none;align=left;verticalAlign=top;spacingLeft=4;spacingRight=4;overflow=hidden;rotatable=0;points=[[0,0.5],[1,0.5]];portConstraint=eastwest;" parent="_mon4JP7_cOclulxk8N5-471" vertex="1">
          <mxGeometry y="78" width="390" height="26" as="geometry" />
        </mxCell>
        <mxCell id="_mon4JP7_cOclulxk8N5-475" value="-participantiRepository: ParticipantRepository" style="text;strokeColor=none;fillColor=none;align=left;verticalAlign=top;spacingLeft=4;spacingRight=4;overflow=hidden;rotatable=0;points=[[0,0.5],[1,0.5]];portConstraint=eastwest;" parent="_mon4JP7_cOclulxk8N5-471" vertex="1">
          <mxGeometry y="104" width="390" height="26" as="geometry" />
        </mxCell>
        <mxCell id="_mon4JP7_cOclulxk8N5-476" value="-prezentareRepository: PresentationRepository" style="text;strokeColor=none;fillColor=none;align=left;verticalAlign=top;spacingLeft=4;spacingRight=4;overflow=hidden;rotatable=0;points=[[0,0.5],[1,0.5]];portConstraint=eastwest;" parent="_mon4JP7_cOclulxk8N5-471" vertex="1">
          <mxGeometry y="130" width="390" height="26" as="geometry" />
        </mxCell>
        <mxCell id="_mon4JP7_cOclulxk8N5-477" value="-participant_PrezentareRepository: Participant_PrezentareRepository" style="text;strokeColor=none;fillColor=none;align=left;verticalAlign=top;spacingLeft=4;spacingRight=4;overflow=hidden;rotatable=0;points=[[0,0.5],[1,0.5]];portConstraint=eastwest;" parent="_mon4JP7_cOclulxk8N5-471" vertex="1">
          <mxGeometry y="156" width="390" height="26" as="geometry" />
        </mxCell>
        <mxCell id="_mon4JP7_cOclulxk8N5-478" value="-fileWriter: FileWriter" style="text;strokeColor=none;fillColor=none;align=left;verticalAlign=top;spacingLeft=4;spacingRight=4;overflow=hidden;rotatable=0;points=[[0,0.5],[1,0.5]];portConstraint=eastwest;" parent="_mon4JP7_cOclulxk8N5-471" vertex="1">
          <mxGeometry y="182" width="390" height="26" as="geometry" />
        </mxCell>
        <mxCell id="_mon4JP7_cOclulxk8N5-479" value="-emailSender: EmailSender" style="text;strokeColor=none;fillColor=none;align=left;verticalAlign=top;spacingLeft=4;spacingRight=4;overflow=hidden;rotatable=0;points=[[0,0.5],[1,0.5]];portConstraint=eastwest;" parent="_mon4JP7_cOclulxk8N5-471" vertex="1">
          <mxGeometry y="208" width="390" height="26" as="geometry" />
        </mxCell>
        <mxCell id="_mon4JP7_cOclulxk8N5-480" value="-fileManager: FileManager" style="text;strokeColor=none;fillColor=none;align=left;verticalAlign=top;spacingLeft=4;spacingRight=4;overflow=hidden;rotatable=0;points=[[0,0.5],[1,0.5]];portConstraint=eastwest;" parent="_mon4JP7_cOclulxk8N5-471" vertex="1">
          <mxGeometry y="234" width="390" height="26" as="geometry" />
        </mxCell>
        <mxCell id="_mon4JP7_cOclulxk8N5-481" value="" style="line;strokeWidth=1;fillColor=none;align=left;verticalAlign=middle;spacingTop=-1;spacingLeft=3;spacingRight=3;rotatable=0;labelPosition=right;points=[];portConstraint=eastwest;" parent="_mon4JP7_cOclulxk8N5-471" vertex="1">
          <mxGeometry y="260" width="390" height="8" as="geometry" />
        </mxCell>
        <mxCell id="_mon4JP7_cOclulxk8N5-482" value="+AddPresentation(Presentation): void" style="text;strokeColor=none;fillColor=none;align=left;verticalAlign=top;spacingLeft=4;spacingRight=4;overflow=hidden;rotatable=0;points=[[0,0.5],[1,0.5]];portConstraint=eastwest;" parent="_mon4JP7_cOclulxk8N5-471" vertex="1">
          <mxGeometry y="268" width="390" height="26" as="geometry" />
        </mxCell>
        <mxCell id="_mon4JP7_cOclulxk8N5-483" value="+RemovePresentation(Presentation): void" style="text;strokeColor=none;fillColor=none;align=left;verticalAlign=top;spacingLeft=4;spacingRight=4;overflow=hidden;rotatable=0;points=[[0,0.5],[1,0.5]];portConstraint=eastwest;" parent="_mon4JP7_cOclulxk8N5-471" vertex="1">
          <mxGeometry y="294" width="390" height="26" as="geometry" />
        </mxCell>
        <mxCell id="_mon4JP7_cOclulxk8N5-484" value="+UpdatePresentation(Presentation): void" style="text;strokeColor=none;fillColor=none;align=left;verticalAlign=top;spacingLeft=4;spacingRight=4;overflow=hidden;rotatable=0;points=[[0,0.5],[1,0.5]];portConstraint=eastwest;" parent="_mon4JP7_cOclulxk8N5-471" vertex="1">
          <mxGeometry y="320" width="390" height="26" as="geometry" />
        </mxCell>
        <mxCell id="_mon4JP7_cOclulxk8N5-485" value="+Update(): void" style="text;strokeColor=none;fillColor=none;align=left;verticalAlign=top;spacingLeft=4;spacingRight=4;overflow=hidden;rotatable=0;points=[[0,0.5],[1,0.5]];portConstraint=eastwest;" parent="_mon4JP7_cOclulxk8N5-471" vertex="1">
          <mxGeometry y="346" width="390" height="26" as="geometry" />
        </mxCell>
        <mxCell id="_mon4JP7_cOclulxk8N5-486" value="+InitializeEvents(): void" style="text;strokeColor=none;fillColor=none;align=left;verticalAlign=top;spacingLeft=4;spacingRight=4;overflow=hidden;rotatable=0;points=[[0,0.5],[1,0.5]];portConstraint=eastwest;" parent="_mon4JP7_cOclulxk8N5-471" vertex="1">
          <mxGeometry y="372" width="390" height="26" as="geometry" />
        </mxCell>
        <mxCell id="_mon4JP7_cOclulxk8N5-487" value="+Save(object, EventArgs): void" style="text;strokeColor=none;fillColor=none;align=left;verticalAlign=top;spacingLeft=4;spacingRight=4;overflow=hidden;rotatable=0;points=[[0,0.5],[1,0.5]];portConstraint=eastwest;" parent="_mon4JP7_cOclulxk8N5-471" vertex="1">
          <mxGeometry y="398" width="390" height="26" as="geometry" />
        </mxCell>
        <mxCell id="_mon4JP7_cOclulxk8N5-488" value="+fillComboBox(): void" style="text;strokeColor=none;fillColor=none;align=left;verticalAlign=top;spacingLeft=4;spacingRight=4;overflow=hidden;rotatable=0;points=[[0,0.5],[1,0.5]];portConstraint=eastwest;" parent="_mon4JP7_cOclulxk8N5-471" vertex="1">
          <mxGeometry y="424" width="390" height="26" as="geometry" />
        </mxCell>
        <mxCell id="_mon4JP7_cOclulxk8N5-489" value="+Back(object, EventArgs): void" style="text;strokeColor=none;fillColor=none;align=left;verticalAlign=top;spacingLeft=4;spacingRight=4;overflow=hidden;rotatable=0;points=[[0,0.5],[1,0.5]];portConstraint=eastwest;" parent="_mon4JP7_cOclulxk8N5-471" vertex="1">
          <mxGeometry y="450" width="390" height="26" as="geometry" />
        </mxCell>
        <mxCell id="_mon4JP7_cOclulxk8N5-490" value="+ClearPresentationFields(): void" style="text;strokeColor=none;fillColor=none;align=left;verticalAlign=top;spacingLeft=4;spacingRight=4;overflow=hidden;rotatable=0;points=[[0,0.5],[1,0.5]];portConstraint=eastwest;" parent="_mon4JP7_cOclulxk8N5-471" vertex="1">
          <mxGeometry y="476" width="390" height="26" as="geometry" />
        </mxCell>
        <mxCell id="_mon4JP7_cOclulxk8N5-491" value="+LoadPresentationTable(): void" style="text;strokeColor=none;fillColor=none;align=left;verticalAlign=top;spacingLeft=4;spacingRight=4;overflow=hidden;rotatable=0;points=[[0,0.5],[1,0.5]];portConstraint=eastwest;" parent="_mon4JP7_cOclulxk8N5-471" vertex="1">
          <mxGeometry y="502" width="390" height="26" as="geometry" />
        </mxCell>
        <mxCell id="_mon4JP7_cOclulxk8N5-492" value="+LoadPresentationTablebySection(Section): void" style="text;strokeColor=none;fillColor=none;align=left;verticalAlign=top;spacingLeft=4;spacingRight=4;overflow=hidden;rotatable=0;points=[[0,0.5],[1,0.5]];portConstraint=eastwest;" parent="_mon4JP7_cOclulxk8N5-471" vertex="1">
          <mxGeometry y="528" width="390" height="26" as="geometry" />
        </mxCell>
        <mxCell id="_mon4JP7_cOclulxk8N5-493" value="+validPresentationData(): Presentation" style="text;strokeColor=none;fillColor=none;align=left;verticalAlign=top;spacingLeft=4;spacingRight=4;overflow=hidden;rotatable=0;points=[[0,0.5],[1,0.5]];portConstraint=eastwest;" parent="_mon4JP7_cOclulxk8N5-471" vertex="1">
          <mxGeometry y="554" width="390" height="26" as="geometry" />
        </mxCell>
        <mxCell id="_mon4JP7_cOclulxk8N5-494" value="+SelectPresentation(object, EventArgs): void" style="text;strokeColor=none;fillColor=none;align=left;verticalAlign=top;spacingLeft=4;spacingRight=4;overflow=hidden;rotatable=0;points=[[0,0.5],[1,0.5]];portConstraint=eastwest;" parent="_mon4JP7_cOclulxk8N5-471" vertex="1">
          <mxGeometry y="580" width="390" height="26" as="geometry" />
        </mxCell>
        <mxCell id="_mon4JP7_cOclulxk8N5-495" value="+FilterPresentations(object, EventArgs): void" style="text;strokeColor=none;fillColor=none;align=left;verticalAlign=top;spacingLeft=4;spacingRight=4;overflow=hidden;rotatable=0;points=[[0,0.5],[1,0.5]];portConstraint=eastwest;" parent="_mon4JP7_cOclulxk8N5-471" vertex="1">
          <mxGeometry y="606" width="390" height="26" as="geometry" />
        </mxCell>
        <mxCell id="_mon4JP7_cOclulxk8N5-496" value="+CreatePresentation(object, EventArgs): void" style="text;strokeColor=none;fillColor=none;align=left;verticalAlign=top;spacingLeft=4;spacingRight=4;overflow=hidden;rotatable=0;points=[[0,0.5],[1,0.5]];portConstraint=eastwest;" parent="_mon4JP7_cOclulxk8N5-471" vertex="1">
          <mxGeometry y="632" width="390" height="26" as="geometry" />
        </mxCell>
        <mxCell id="_mon4JP7_cOclulxk8N5-497" value="+UpdatePresentation(object, EventArgs): void" style="text;strokeColor=none;fillColor=none;align=left;verticalAlign=top;spacingLeft=4;spacingRight=4;overflow=hidden;rotatable=0;points=[[0,0.5],[1,0.5]];portConstraint=eastwest;" parent="_mon4JP7_cOclulxk8N5-471" vertex="1">
          <mxGeometry y="658" width="390" height="26" as="geometry" />
        </mxCell>
        <mxCell id="_mon4JP7_cOclulxk8N5-498" value="+DeletePresentation(object, EventArgs): void" style="text;strokeColor=none;fillColor=none;align=left;verticalAlign=top;spacingLeft=4;spacingRight=4;overflow=hidden;rotatable=0;points=[[0,0.5],[1,0.5]];portConstraint=eastwest;" parent="_mon4JP7_cOclulxk8N5-471" vertex="1">
          <mxGeometry y="684" width="390" height="26" as="geometry" />
        </mxCell>
        <mxCell id="_mon4JP7_cOclulxk8N5-499" value="+ClearParticipantFields(): void" style="text;strokeColor=none;fillColor=none;align=left;verticalAlign=top;spacingLeft=4;spacingRight=4;overflow=hidden;rotatable=0;points=[[0,0.5],[1,0.5]];portConstraint=eastwest;" parent="_mon4JP7_cOclulxk8N5-471" vertex="1">
          <mxGeometry y="710" width="390" height="26" as="geometry" />
        </mxCell>
        <mxCell id="_mon4JP7_cOclulxk8N5-500" value="+LoadParticipantsTable(): void" style="text;strokeColor=none;fillColor=none;align=left;verticalAlign=top;spacingLeft=4;spacingRight=4;overflow=hidden;rotatable=0;points=[[0,0.5],[1,0.5]];portConstraint=eastwest;" parent="_mon4JP7_cOclulxk8N5-471" vertex="1">
          <mxGeometry y="736" width="390" height="26" as="geometry" />
        </mxCell>
        <mxCell id="_mon4JP7_cOclulxk8N5-501" value="+LoadParticipantsTableBySection(Section): void" style="text;strokeColor=none;fillColor=none;align=left;verticalAlign=top;spacingLeft=4;spacingRight=4;overflow=hidden;rotatable=0;points=[[0,0.5],[1,0.5]];portConstraint=eastwest;" parent="_mon4JP7_cOclulxk8N5-471" vertex="1">
          <mxGeometry y="762" width="390" height="26" as="geometry" />
        </mxCell>
        <mxCell id="_mon4JP7_cOclulxk8N5-502" value="+ValidParticipantData(): Participant" style="text;strokeColor=none;fillColor=none;align=left;verticalAlign=top;spacingLeft=4;spacingRight=4;overflow=hidden;rotatable=0;points=[[0,0.5],[1,0.5]];portConstraint=eastwest;" parent="_mon4JP7_cOclulxk8N5-471" vertex="1">
          <mxGeometry y="788" width="390" height="26" as="geometry" />
        </mxCell>
        <mxCell id="_mon4JP7_cOclulxk8N5-503" value="+FilterParticipanti(object, EventArgs): void" style="text;strokeColor=none;fillColor=none;align=left;verticalAlign=top;spacingLeft=4;spacingRight=4;overflow=hidden;rotatable=0;points=[[0,0.5],[1,0.5]];portConstraint=eastwest;" parent="_mon4JP7_cOclulxk8N5-471" vertex="1">
          <mxGeometry y="814" width="390" height="26" as="geometry" />
        </mxCell>
        <mxCell id="_mon4JP7_cOclulxk8N5-504" value="+SelectParticipant(object, EventArgs): void" style="text;strokeColor=none;fillColor=none;align=left;verticalAlign=top;spacingLeft=4;spacingRight=4;overflow=hidden;rotatable=0;points=[[0,0.5],[1,0.5]];portConstraint=eastwest;" parent="_mon4JP7_cOclulxk8N5-471" vertex="1">
          <mxGeometry y="840" width="390" height="26" as="geometry" />
        </mxCell>
        <mxCell id="_mon4JP7_cOclulxk8N5-505" value="+AcceptParticipant(object, EventArgs): void" style="text;strokeColor=none;fillColor=none;align=left;verticalAlign=top;spacingLeft=4;spacingRight=4;overflow=hidden;rotatable=0;points=[[0,0.5],[1,0.5]];portConstraint=eastwest;" parent="_mon4JP7_cOclulxk8N5-471" vertex="1">
          <mxGeometry y="866" width="390" height="26" as="geometry" />
        </mxCell>
        <mxCell id="_mon4JP7_cOclulxk8N5-506" value="+RejectParticipant(object, EventArgs): void" style="text;strokeColor=none;fillColor=none;align=left;verticalAlign=top;spacingLeft=4;spacingRight=4;overflow=hidden;rotatable=0;points=[[0,0.5],[1,0.5]];portConstraint=eastwest;" parent="_mon4JP7_cOclulxk8N5-471" vertex="1">
          <mxGeometry y="892" width="390" height="26" as="geometry" />
        </mxCell>
        <mxCell id="_mon4JP7_cOclulxk8N5-507" value="+CreateParticipant(object, EventArgs): void" style="text;strokeColor=none;fillColor=none;align=left;verticalAlign=top;spacingLeft=4;spacingRight=4;overflow=hidden;rotatable=0;points=[[0,0.5],[1,0.5]];portConstraint=eastwest;" parent="_mon4JP7_cOclulxk8N5-471" vertex="1">
          <mxGeometry y="918" width="390" height="26" as="geometry" />
        </mxCell>
        <mxCell id="_mon4JP7_cOclulxk8N5-508" value="+UpdateParticipant(object, EventArgs): void" style="text;strokeColor=none;fillColor=none;align=left;verticalAlign=top;spacingLeft=4;spacingRight=4;overflow=hidden;rotatable=0;points=[[0,0.5],[1,0.5]];portConstraint=eastwest;" parent="_mon4JP7_cOclulxk8N5-471" vertex="1">
          <mxGeometry y="944" width="390" height="26" as="geometry" />
        </mxCell>
        <mxCell id="_mon4JP7_cOclulxk8N5-509" value="+DeleteParticipant(object, EventArgs): void" style="text;strokeColor=none;fillColor=none;align=left;verticalAlign=top;spacingLeft=4;spacingRight=4;overflow=hidden;rotatable=0;points=[[0,0.5],[1,0.5]];portConstraint=eastwest;" parent="_mon4JP7_cOclulxk8N5-471" vertex="1">
          <mxGeometry y="970" width="390" height="26" as="geometry" />
        </mxCell>
        <mxCell id="_mon4JP7_cOclulxk8N5-510" value="+ShowParticipantsByConferenceChart(object, EventArgs): void" style="text;strokeColor=none;fillColor=none;align=left;verticalAlign=top;spacingLeft=4;spacingRight=4;overflow=hidden;rotatable=0;points=[[0,0.5],[1,0.5]];portConstraint=eastwest;" parent="_mon4JP7_cOclulxk8N5-471" vertex="1">
          <mxGeometry y="996" width="390" height="26" as="geometry" />
        </mxCell>
        <mxCell id="_mon4JP7_cOclulxk8N5-511" value="+ShowParticipantsBySectionChart(object, EventArgs): void" style="text;strokeColor=none;fillColor=none;align=left;verticalAlign=top;spacingLeft=4;spacingRight=4;overflow=hidden;rotatable=0;points=[[0,0.5],[1,0.5]];portConstraint=eastwest;" parent="_mon4JP7_cOclulxk8N5-471" vertex="1">
          <mxGeometry y="1022" width="390" height="26" as="geometry" />
        </mxCell>
        <mxCell id="_mon4JP7_cOclulxk8N5-512" value="+ShowPresentationsByAuthorChart(object, EventArgs): void" style="text;strokeColor=none;fillColor=none;align=left;verticalAlign=top;spacingLeft=4;spacingRight=4;overflow=hidden;rotatable=0;points=[[0,0.5],[1,0.5]];portConstraint=eastwest;" parent="_mon4JP7_cOclulxk8N5-471" vertex="1">
          <mxGeometry y="1048" width="390" height="26" as="geometry" />
        </mxCell>
        <mxCell id="_mon4JP7_cOclulxk8N5-513" value="+ShowPresentationsPerDayChart(object, EventArgs): void" style="text;strokeColor=none;fillColor=none;align=left;verticalAlign=top;spacingLeft=4;spacingRight=4;overflow=hidden;rotatable=0;points=[[0,0.5],[1,0.5]];portConstraint=eastwest;" parent="_mon4JP7_cOclulxk8N5-471" vertex="1">
          <mxGeometry y="1074" width="390" height="26" as="geometry" />
        </mxCell>
        <mxCell id="_mon4JP7_cOclulxk8N5-514" value="+ShowChartsButton_Click(object, EventArgs): void" style="text;strokeColor=none;fillColor=none;align=left;verticalAlign=top;spacingLeft=4;spacingRight=4;overflow=hidden;rotatable=0;points=[[0,0.5],[1,0.5]];portConstraint=eastwest;" parent="_mon4JP7_cOclulxk8N5-471" vertex="1">
          <mxGeometry y="1100" width="390" height="26" as="geometry" />
        </mxCell>
        <mxCell id="_mon4JP7_cOclulxk8N5-515" value="+ShowLineChart(object, EventArgs): void" style="text;strokeColor=none;fillColor=none;align=left;verticalAlign=top;spacingLeft=4;spacingRight=4;overflow=hidden;rotatable=0;points=[[0,0.5],[1,0.5]];portConstraint=eastwest;" parent="_mon4JP7_cOclulxk8N5-471" vertex="1">
          <mxGeometry y="1126" width="390" height="26" as="geometry" />
        </mxCell>
        <mxCell id="_mon4JP7_cOclulxk8N5-516" value="+ShowRingChart(object, EventArgs): void" style="text;strokeColor=none;fillColor=none;align=left;verticalAlign=top;spacingLeft=4;spacingRight=4;overflow=hidden;rotatable=0;points=[[0,0.5],[1,0.5]];portConstraint=eastwest;" parent="_mon4JP7_cOclulxk8N5-471" vertex="1">
          <mxGeometry y="1152" width="390" height="26" as="geometry" />
        </mxCell>
        <mxCell id="_mon4JP7_cOclulxk8N5-529" style="edgeStyle=orthogonalEdgeStyle;rounded=0;orthogonalLoop=1;jettySize=auto;html=1;jumpStyle=arc;" parent="1" source="_mon4JP7_cOclulxk8N5-517" target="_mon4JP7_cOclulxk8N5-213" edge="1">
          <mxGeometry relative="1" as="geometry">
            <Array as="points">
              <mxPoint x="930" y="194" />
              <mxPoint x="930" y="-258" />
            </Array>
          </mxGeometry>
        </mxCell>
        <mxCell id="3" style="edgeStyle=none;html=1;" parent="1" source="_mon4JP7_cOclulxk8N5-517" target="_mon4JP7_cOclulxk8N5-212" edge="1">
          <mxGeometry relative="1" as="geometry" />
        </mxCell>
        <mxCell id="_mon4JP7_cOclulxk8N5-517" value="LoginController" style="swimlane;fontStyle=1;childLayout=stackLayout;horizontal=1;startSize=26;horizontalStack=0;resizeParent=1;resizeParentMax=0;resizeLast=0;collapsible=1;marginBottom=0;" parent="1" vertex="1">
          <mxGeometry x="393.5" y="60" width="228" height="268" as="geometry" />
        </mxCell>
        <mxCell id="_mon4JP7_cOclulxk8N5-518" value="-_loginGUI: LoginGUI" style="text;strokeColor=none;fillColor=none;align=left;verticalAlign=top;spacingLeft=4;spacingRight=4;overflow=hidden;rotatable=0;points=[[0,0.5],[1,0.5]];portConstraint=eastwest;" parent="_mon4JP7_cOclulxk8N5-517" vertex="1">
          <mxGeometry y="26" width="228" height="26" as="geometry" />
        </mxCell>
        <mxCell id="_mon4JP7_cOclulxk8N5-519" value="-_userRepository: UserRepository" style="text;strokeColor=none;fillColor=none;align=left;verticalAlign=top;spacingLeft=4;spacingRight=4;overflow=hidden;rotatable=0;points=[[0,0.5],[1,0.5]];portConstraint=eastwest;" parent="_mon4JP7_cOclulxk8N5-517" vertex="1">
          <mxGeometry y="52" width="228" height="26" as="geometry" />
        </mxCell>
        <mxCell id="_mon4JP7_cOclulxk8N5-520" value="-_subject: Subject" style="text;strokeColor=none;fillColor=none;align=left;verticalAlign=top;spacingLeft=4;spacingRight=4;overflow=hidden;rotatable=0;points=[[0,0.5],[1,0.5]];portConstraint=eastwest;" parent="_mon4JP7_cOclulxk8N5-517" vertex="1">
          <mxGeometry y="78" width="228" height="26" as="geometry" />
        </mxCell>
        <mxCell id="_mon4JP7_cOclulxk8N5-521" value="" style="line;strokeWidth=1;fillColor=none;align=left;verticalAlign=middle;spacingTop=-1;spacingLeft=3;spacingRight=3;rotatable=0;labelPosition=right;points=[];portConstraint=eastwest;" parent="_mon4JP7_cOclulxk8N5-517" vertex="1">
          <mxGeometry y="104" width="228" height="8" as="geometry" />
        </mxCell>
        <mxCell id="_mon4JP7_cOclulxk8N5-522" value="+InitializeEvents(): void" style="text;strokeColor=none;fillColor=none;align=left;verticalAlign=top;spacingLeft=4;spacingRight=4;overflow=hidden;rotatable=0;points=[[0,0.5],[1,0.5]];portConstraint=eastwest;" parent="_mon4JP7_cOclulxk8N5-517" vertex="1">
          <mxGeometry y="112" width="228" height="26" as="geometry" />
        </mxCell>
        <mxCell id="_mon4JP7_cOclulxk8N5-523" value="+ValidateUserData(): User" style="text;strokeColor=none;fillColor=none;align=left;verticalAlign=top;spacingLeft=4;spacingRight=4;overflow=hidden;rotatable=0;points=[[0,0.5],[1,0.5]];portConstraint=eastwest;" parent="_mon4JP7_cOclulxk8N5-517" vertex="1">
          <mxGeometry y="138" width="228" height="26" as="geometry" />
        </mxCell>
        <mxCell id="_mon4JP7_cOclulxk8N5-524" value="+NavigateToUserPage(User): void" style="text;strokeColor=none;fillColor=none;align=left;verticalAlign=top;spacingLeft=4;spacingRight=4;overflow=hidden;rotatable=0;points=[[0,0.5],[1,0.5]];portConstraint=eastwest;" parent="_mon4JP7_cOclulxk8N5-517" vertex="1">
          <mxGeometry y="164" width="228" height="26" as="geometry" />
        </mxCell>
        <mxCell id="_mon4JP7_cOclulxk8N5-525" value="+Login(object, RoutedEventArgs): void" style="text;strokeColor=none;fillColor=none;align=left;verticalAlign=top;spacingLeft=4;spacingRight=4;overflow=hidden;rotatable=0;points=[[0,0.5],[1,0.5]];portConstraint=eastwest;" parent="_mon4JP7_cOclulxk8N5-517" vertex="1">
          <mxGeometry y="190" width="228" height="26" as="geometry" />
        </mxCell>
        <mxCell id="_mon4JP7_cOclulxk8N5-526" value="+Back(object, RoutedEventArgs): void" style="text;strokeColor=none;fillColor=none;align=left;verticalAlign=top;spacingLeft=4;spacingRight=4;overflow=hidden;rotatable=0;points=[[0,0.5],[1,0.5]];portConstraint=eastwest;" parent="_mon4JP7_cOclulxk8N5-517" vertex="1">
          <mxGeometry y="216" width="228" height="26" as="geometry" />
        </mxCell>
        <mxCell id="_mon4JP7_cOclulxk8N5-527" value="+ShowPage(Page): void" style="text;strokeColor=none;fillColor=none;align=left;verticalAlign=top;spacingLeft=4;spacingRight=4;overflow=hidden;rotatable=0;points=[[0,0.5],[1,0.5]];portConstraint=eastwest;" parent="_mon4JP7_cOclulxk8N5-517" vertex="1">
          <mxGeometry y="242" width="228" height="26" as="geometry" />
        </mxCell>
      </root>
    </mxGraphModel>
  </diagram>
</mxfile>
